<svg width="1280" height="748" viewBox="0 0 1280 748" fill="none" xmlns="http://www.w3.org/2000/svg">
<path d="M778.403 213.633C778.353 213.633 778.306 213.639 778.26 213.649C778.133 213.681 778.128 213.729 778.244 213.792C779.203 214.326 780.123 214.685 781.004 214.869C781.219 214.911 781.247 214.894 781.089 214.816C781.039 214.791 780.995 214.803 780.957 214.853C780.921 214.902 780.932 214.936 780.988 214.954L786.514 216.99C786.606 217.021 786.667 217.083 786.699 217.175C786.724 217.235 786.754 217.292 786.789 217.345C786.859 217.451 786.955 217.522 787.074 217.557C788.211 217.891 789.295 218.389 790.427 218.718C791.816 219.118 793.339 219.513 794.995 219.906C795.242 219.966 795.48 219.992 795.709 219.985C796.407 219.975 797.343 220.5 798.004 220.728C798.529 220.915 799.086 221.074 799.675 221.205C806.161 222.647 812.608 223.647 819.017 224.206C821.64 224.434 825.093 224.423 827.361 225.6C828.228 226.053 829.037 226.618 829.788 227.297C835.388 232.376 840.601 237.488 845.646 243.336C852.287 251.04 859.145 258.93 863.19 268.415C863.208 268.452 863.212 268.493 863.202 268.532C863.191 268.572 863.167 268.606 863.134 268.629C863.101 268.652 863.061 268.662 863.021 268.658C862.98 268.654 862.943 268.635 862.915 268.606C862.256 267.977 861.613 267.388 860.985 266.84C857.58 263.854 854.36 261.257 851.325 259.052C848.029 256.659 844.237 254.126 839.951 251.454C837.071 249.658 833.99 247.968 830.708 246.385C822.054 242.21 813.405 238.933 804.762 236.555C804.377 236.449 803.986 236.374 803.588 236.332C803.495 236.322 803.401 236.332 803.313 236.362C803.224 236.391 803.143 236.44 803.075 236.504C803.006 236.568 802.953 236.645 802.917 236.732C802.882 236.819 802.865 236.912 802.869 237.005C802.925 238.38 803.129 239.616 803.482 240.711C804.451 243.727 805.72 246.934 807.289 250.335C814.295 265.536 823.237 279.481 834.917 291.14C842.827 299.04 851.732 306.644 861.049 311.988C864.168 313.777 867.417 315.52 870.794 317.216C874.908 319.284 879.286 321.161 883.579 322.996C885.763 323.923 887.069 325.106 887.624 327.343C889.831 336.23 891.604 345.394 892.944 354.835C894.308 364.428 895.251 373.034 895.773 380.651C896.34 388.947 895.928 397.422 894.535 406.075C894.19 408.228 893.936 408.217 893.774 406.043C892.917 394.651 890.723 383.56 887.191 372.772C882.524 358.509 875.151 345.634 865.073 334.146C860.345 328.754 854.762 323.049 849.109 318.876C848.369 318.328 847.616 318.319 846.851 318.849C846.771 318.906 846.703 318.979 846.652 319.064C846.602 319.149 846.568 319.244 846.555 319.342C846.39 320.477 846.328 321.644 846.37 322.842C846.585 328.971 847.024 334.611 847.687 339.761C850.059 358.145 855.881 375.026 865.152 390.402C869.357 397.38 874.144 404.058 879.513 410.439C882.516 414.002 886.213 416.955 889.306 420.423C890.684 421.971 891.433 423.38 891.553 424.648C891.758 426.829 891.518 430.2 890.834 434.76C889.544 443.392 887.619 451.972 885.06 460.502C883.569 465.48 881.924 470.735 880.089 475.486C877.52 482.152 874.555 488.845 871.196 495.565C869.705 498.552 867.961 501.328 865.966 503.895C865.843 504.054 865.684 504.16 865.49 504.213C865.469 504.219 865.447 504.221 865.426 504.216C865.404 504.212 865.384 504.202 865.368 504.187C865.351 504.173 865.339 504.155 865.332 504.134C865.324 504.113 865.323 504.091 865.326 504.069C866.567 495.908 867.087 487.702 866.886 479.452C866.77 474.701 866.518 469.874 866.13 464.971C864.642 446.117 859.889 428.365 851.869 411.717C850.32 408.503 848.274 405.078 846.455 401.748C845.788 400.533 844.089 398.049 841.357 394.299C840.617 393.286 838.708 391.977 838.005 393.816C837.399 395.407 836.919 397.077 836.567 398.827C835.09 406.19 834.013 413.951 833.336 422.109C831.433 445.141 835.213 468.566 843.7 489.95C844.964 493.131 846.82 496.927 848.369 499.632C850.145 502.742 851.963 505.982 853.82 509.35C854.936 511.371 856.247 513.248 857.379 515.241C857.742 515.884 857.772 516.531 857.469 517.182C852.599 527.616 844.324 536.275 835.382 544.419C830.592 548.781 824.828 553.415 818.092 558.321C816.241 559.673 814.047 560.453 812.318 562.033C811.51 562.771 811.331 562.642 811.778 561.646C816.225 551.731 820.355 541.943 822.777 531.37C826.802 513.781 827.239 496.198 824.088 478.619C823.034 472.734 821.654 466.905 819.948 461.133C819.556 459.818 819.292 458.137 818.367 457.198C816.236 455.03 814.459 458.312 813.64 460.067C809.247 469.501 805.638 478.739 802.81 487.781C797.029 506.254 795.115 525.273 797.068 544.838C797.265 546.81 797.59 548.919 798.041 551.163C799.025 556.038 800.019 560.875 801.023 565.675C801.157 566.315 801.136 566.941 800.96 567.552C800.91 567.725 800.815 567.867 800.674 567.976C799.814 568.655 798.943 569.233 798.062 569.71C791.974 573.005 785.96 575.882 780.021 578.342C776.778 579.682 773.346 580.735 769.726 581.502C769.68 581.513 769.678 581.523 769.72 581.534C769.738 581.537 769.754 581.545 769.768 581.555C769.81 581.591 769.803 581.615 769.747 581.629C768.531 581.94 767.281 582.177 765.998 582.34C763.587 582.642 761.112 583.087 758.891 583.84C757.608 584.275 756.575 585.286 755.793 586.873C755.718 587.023 755.705 587.196 755.756 587.356C756.059 588.328 756.755 588.996 757.844 589.36C759.988 590.074 761.847 590.191 763.423 589.71C763.44 589.706 763.451 589.694 763.454 589.673C763.462 589.655 763.463 589.637 763.46 589.62C763.46 589.57 763.486 589.54 763.539 589.53C765.034 589.233 766.354 588.872 767.5 588.448C767.94 588.285 768.383 588.163 768.827 588.082C769.271 587.997 769.706 587.891 770.133 587.764C771.987 587.209 773.861 586.636 775.754 586.046C776.54 585.802 777.365 585.496 778.228 585.129C779.014 584.797 779.832 584.459 780.682 584.116C780.883 584.035 781.084 583.985 781.284 583.968C781.57 583.943 781.79 583.814 781.945 583.581C782.002 583.499 782.079 583.455 782.178 583.448C782.495 583.434 782.811 583.354 783.125 583.209C785.857 581.94 788.553 580.663 791.215 579.376C792.025 578.987 792.827 578.662 793.621 578.4C794.428 578.135 795.2 577.808 795.937 577.419C798.94 575.834 801.737 574.169 804.883 572.754C806.424 572.064 807.978 571.227 809.547 570.24C814.574 567.08 819.155 564.139 823.29 561.418C825.944 559.673 829.037 556.725 831.596 555.697C832.996 555.135 834.542 554.779 836.234 554.631C843.679 553.984 851.245 553.533 859.023 551.969C859.827 551.807 860.76 551.66 861.821 551.529C862.744 551.412 863.684 551.264 864.639 551.084C864.688 551.077 864.688 551.07 864.639 551.062L863.893 550.999C863.851 550.995 863.851 550.988 863.893 550.978C864.817 550.769 865.781 550.603 866.786 550.479C867.945 550.334 868.895 550.17 869.636 549.986C871.085 549.629 872.509 549.267 873.908 548.899C874.074 548.857 874.218 548.775 874.342 548.655C874.648 548.351 875.114 548.102 875.738 547.908C878.974 546.9 882.104 545.833 885.129 544.705C888.52 543.44 891.564 542.151 894.26 540.84C902.84 536.665 910.902 531.865 918.446 526.439C925.017 521.713 931.106 516.703 936.715 511.408C937.617 510.552 938.358 509.548 938.936 508.396C939.003 508.263 939.042 508.118 939.052 507.97C939.062 507.821 939.042 507.672 938.993 507.532C938.944 507.391 938.867 507.262 938.768 507.152C938.668 507.042 938.547 506.953 938.412 506.89C936.988 506.226 935.469 505.86 933.854 505.793C924.035 505.395 913.661 506.371 903.91 508.772C899.997 509.737 896.039 510.801 892.034 511.964C882.146 514.833 872.66 519.334 863.38 524.281C862.524 524.737 861.042 525.442 858.934 526.397C858.623 526.535 858.56 526.46 858.743 526.174C861.443 521.989 864.272 517.675 867.23 513.232C869.352 510.04 871.178 507.014 872.708 504.154C875.916 498.166 878.9 492.145 881.66 486.09C882.915 483.347 884.845 481.537 887.45 480.66C889.759 479.886 891.791 479.137 893.547 478.412C896.931 477.016 900.375 475.461 903.879 473.746C906.075 472.672 908.244 471.429 910.388 470.019C919.784 463.842 927.89 456.705 934.869 448.19C937.859 444.542 940.335 441.246 942.299 438.302C949.173 428.015 954.725 416.51 958.955 403.785C959.508 402.116 959.855 400.446 959.996 398.774C960.01 398.61 959.985 398.445 959.924 398.292C959.862 398.139 959.766 398.003 959.643 397.895C959.519 397.786 959.372 397.708 959.213 397.666C959.054 397.624 958.888 397.621 958.727 397.655C957.078 398.005 955.557 398.532 954.164 399.235C941.565 405.601 929.931 413.581 919.26 423.175C911.572 430.094 904.095 437.22 897.835 445.783C896.382 447.766 894.902 449.894 893.393 452.167C892.935 452.856 892.799 452.798 892.986 451.992C896.375 437.289 898.21 421.441 899.796 406.102C899.863 405.444 899.982 404.804 900.151 404.182C900.195 404.014 900.294 403.863 900.431 403.753C901.822 402.639 903.038 401.526 904.561 400.476C909.298 397.206 912.857 394.271 915.236 391.669C918.055 388.594 921.159 385.545 923.496 382.316C928.085 375.975 931.727 370.135 934.42 364.798C939.817 354.094 943.857 342.477 946.539 329.947C948.182 322.259 949.134 314.484 949.395 306.623C949.458 304.753 949.321 302.925 948.982 301.14C948.964 301.044 948.926 300.953 948.871 300.873C948.815 300.793 948.744 300.726 948.661 300.675C948.578 300.624 948.486 300.592 948.39 300.58C948.294 300.568 948.197 300.576 948.104 300.605C947.072 300.919 946.109 301.389 945.217 302.015C939.373 306.094 933.837 311.301 928.609 317.635C925.759 321.087 922.792 324.867 920.445 328.589C915.414 336.564 911.147 345.173 907.643 354.416C906.537 357.332 905.646 360.157 904.973 362.889C903.887 367.293 902.745 371.972 901.547 376.924C901.522 377.03 901.467 377.118 901.383 377.189C901.342 377.223 901.293 377.245 901.24 377.252C901.188 377.259 901.134 377.251 901.086 377.229C901.038 377.206 900.997 377.171 900.968 377.126C900.939 377.082 900.923 377.03 900.923 376.977C900.849 374.326 900.664 371.775 900.368 369.326C899.74 364.144 898.998 358.994 898.141 353.875C896.841 346.092 895.82 338.595 894.207 330.891C893.629 328.133 893.305 325.574 893.235 323.213C893.203 322.096 893.42 321.048 893.885 320.069C895.117 317.481 896.65 315.042 898.231 312.662C900.283 309.565 901.943 306.299 903.868 303.044C908.426 295.334 911.858 287.079 914.11 278.383C914.401 277.254 914.433 276.125 914.692 274.969C917.893 260.812 918.485 246.395 916.468 231.719C915.559 225.081 914.436 218.713 913.1 212.615C912.945 211.912 912.66 211.251 912.244 210.632C911.62 209.699 910.24 209.858 909.494 210.463C908.786 211.039 907.982 212.004 907.083 213.358C903.493 218.755 900.748 224.869 897.803 230.701C896.386 233.515 895.052 236.692 893.8 240.234C889.281 253.058 886.461 266.066 885.34 279.258C884.981 283.51 884.891 288.68 885.07 294.767C885.113 296.216 885.086 297.653 884.991 299.078C884.952 299.703 884.788 299.739 884.499 299.184C880.467 291.45 876.499 283.47 872.597 275.244C870.577 270.981 868.901 266.729 867.605 262.254C867.253 261.045 867.175 259.916 867.373 258.866C867.947 255.816 868.525 252.873 869.107 250.038C872.953 231.272 871.522 213.103 864.813 195.532C861.891 187.865 858.78 180.981 855.481 174.88C853.38 170.999 851.136 166.771 848.75 162.197C847.851 160.474 845.503 155.813 842.843 157.282C842.694 157.364 842.579 157.5 842.521 157.664C841.995 159.102 841.639 160.508 841.453 161.879C841.005 165.142 840.594 168.544 840.221 172.086C839.128 182.435 839.175 192.63 840.363 202.669C841.047 208.448 842.595 215.413 845.006 223.564C846.694 229.269 848.457 234.761 850.294 240.038C850.313 240.096 850.311 240.159 850.286 240.215C850.262 240.271 850.217 240.316 850.161 240.34C850.066 240.383 849.98 240.362 849.902 240.277C841.844 231.617 833.264 222.928 824.162 214.211C820.165 210.383 816.895 207.467 814.353 205.463C806.239 199.054 798.839 194.019 792.156 190.357C783.837 185.801 774.559 182.284 764.322 179.806C763.567 179.625 762.758 179.507 761.895 179.45C761.362 179.419 760.811 179.313 760.24 179.132C759.714 178.97 759.142 178.865 758.521 178.819C758.394 178.809 758.296 178.751 758.225 178.644C758.165 178.56 758.084 178.519 757.982 178.523C756.755 178.576 755.639 178.268 754.434 178.125C747.673 177.315 740.721 177.241 733.579 177.902C732.522 177.998 731.568 178.335 730.719 178.915C729.058 180.044 730.671 181.826 731.591 182.679C737.994 188.644 744.356 193.469 751.933 198.554C758.014 202.633 762.584 205.548 765.644 207.297C769.126 209.291 773.069 211.366 777.472 213.522C777.691 213.632 778.001 213.669 778.403 213.633Z" stroke="#FEF6E6" stroke-width="2"/>
<path d="M429.765 546.427C429.726 546.427 429.699 546.457 429.686 546.518C429.679 546.549 429.691 546.572 429.721 546.587C431.284 547.352 432.694 547.934 433.949 548.335C437.063 549.319 441.356 550.568 446.829 552.08C447.959 552.392 449.07 552.643 450.16 552.835C451.215 553.015 452.325 553.212 453.492 553.424C455.104 553.722 456.769 553.986 458.484 554.216C462.509 554.762 466.814 555.273 471.398 555.752C473.08 555.929 474.888 556.038 476.821 556.081C477.416 556.095 478.066 556.214 478.77 556.437C479.573 556.692 480.169 556.981 480.559 557.303C484.178 560.268 487.625 562.798 490.9 564.895C495.736 567.994 500.339 570.856 504.712 573.481C507.22 574.983 509.613 576.359 511.89 577.609C514.032 578.785 516.507 579.936 519.316 581.063C520.344 581.474 521.359 581.945 522.36 582.476C523.355 583.004 524.357 583.521 525.365 584.027C525.513 584.105 525.672 584.141 525.84 584.134C526.316 584.116 526.708 584.343 527.015 584.814C527.131 584.994 527.098 585.037 526.916 584.941C526.695 584.824 526.455 584.762 526.197 584.755C525.973 584.752 525.958 584.807 526.153 584.92C526.721 585.249 527.29 585.462 527.858 585.557C529.202 585.791 530.228 586.493 531.611 586.578C532.351 586.624 533.103 586.783 533.867 587.056C534.604 587.318 535.387 587.56 536.216 587.784C537.968 588.251 539.71 588.761 541.442 589.314C543.173 589.863 544.989 590.082 546.89 589.973C547.055 589.962 547.192 589.891 547.301 589.76C547.833 589.115 548.587 588.703 549.562 588.522C550.494 588.347 550.548 587.321 549.909 586.71C549.026 585.871 548.108 585.302 547.152 585.005C545.179 584.392 543.19 583.838 541.184 583.342C530.003 580.583 519.234 575.983 508.876 569.544C508.179 569.112 507.605 568.567 507.156 567.908C507.057 567.759 507.006 567.592 507.002 567.408C506.992 566.215 507.115 565.062 507.369 563.95C509.934 552.767 511.198 542.237 511.161 532.358C511.105 516.639 509.033 501.766 504.945 487.74C503.378 482.363 501.556 476.572 499.477 470.366C498.198 466.562 497.186 462.647 495.744 458.922C495.126 457.332 494.065 456.618 492.561 456.781C491.699 456.877 491.104 457.413 490.826 458.285C489.382 462.843 488.113 467.313 487.019 471.695C484.96 479.926 483.687 488.312 483.202 496.852C482.395 511.002 483.99 524.855 487.985 538.41C489.726 544.307 491.54 549.456 493.92 554.896C494.876 557.085 495.526 559.322 496.354 561.548C496.529 562.009 496.411 562.12 496.002 561.883C489.061 557.856 482.83 552.702 476.519 547.155C471.836 543.036 467.455 538.573 463.377 533.766C459.198 528.836 456.184 523.459 453.675 517.838C453.44 517.321 453.452 516.777 453.71 516.207C454.324 514.84 454.959 513.653 455.613 512.647C458.761 507.828 461.458 502.887 464.135 497.776C465.269 495.605 466.303 493.388 467.239 491.124C468.604 487.82 469.493 485.51 469.906 484.196C473.753 472.005 476.083 459.519 476.896 446.74C477.438 438.193 477.395 429.439 476.767 420.477C476.236 412.864 474.903 405.208 473.371 397.754C473.067 396.266 472.627 394.812 472.052 393.392C471.976 393.202 471.835 393.051 471.659 392.97C471.483 392.889 471.284 392.884 471.105 392.956C469.658 393.534 468.542 394.435 467.759 395.66C464.015 401.512 460.734 407.59 457.919 413.895C454.681 421.142 452.208 429.1 450.393 436.555C446.976 450.56 445.076 465.558 444.692 481.55C444.494 489.902 445.327 498.541 446.72 506.484C446.915 507.603 446.735 507.676 446.179 506.702C440.422 496.579 435.789 486.134 432.279 475.366C430.246 469.129 428.485 463.21 426.994 457.61C424.38 447.77 422.584 437.727 421.605 427.48C421.493 426.3 421.569 425.162 421.833 424.064C422.022 423.267 422.711 422.565 423.261 422.034C434.399 411.288 443.562 398.781 450.75 384.514C459.108 367.932 463.57 348.821 464.591 329.902C464.717 327.589 464.732 325.138 464.636 322.548C464.616 321.967 464.661 321.383 464.77 320.795C465.176 318.627 462.97 317.607 461.448 318.835C455.628 323.505 450.651 329.413 445.837 335.48C443.088 338.955 440.024 343.609 436.646 349.443C435.066 352.174 433.482 355.312 431.892 358.857C429.351 364.521 427.53 369.179 426.429 372.831C423.172 383.653 421.422 396.101 420.535 408.268C420.452 409.402 420.257 409.423 419.95 408.332C419.246 405.856 418.788 403.325 418.576 400.74C418.021 393.918 417.957 386.94 418.383 379.806C418.948 370.342 419.472 363.391 419.955 358.953C420.645 352.638 421.794 345.044 423.4 336.171C424.104 332.303 424.846 329.108 425.626 326.586C426.404 324.063 432.036 321.55 434.202 320.62C443.091 316.81 452.029 311.88 459.763 305.563C462.929 302.977 465.385 300.861 467.13 299.214C472.241 294.395 477.545 288.891 481.848 283.455C488.098 275.553 493.604 266.665 498.366 256.789C499.126 255.213 500.22 252.695 501.648 249.234C503.116 245.675 504.642 241.663 505.579 238.136C505.844 237.151 505.446 236.533 504.385 236.281C503.707 236.118 502.607 236.295 501.083 236.813C494.619 239.002 487.807 241.392 481.556 244.538C473.485 248.597 465.917 253.552 458.851 259.403C455.747 261.975 452.684 264.568 449.66 267.182C449.078 267.685 448.899 267.554 449.124 266.788C449.962 263.898 451.444 261.385 453.13 258.978C457.81 252.288 463.015 245.749 468.746 239.363C469.93 238.045 470.981 236.467 472.265 235.144C475.091 232.233 477.629 229.385 480.881 226.835C482.24 225.772 483.833 225.159 485.66 224.996C488.899 224.71 492.132 224.377 495.357 223.998C505.451 222.808 514.691 219.737 524.294 215.624C527.202 214.374 530.193 212.883 533.267 211.151C538.647 208.115 543.443 205.223 547.653 202.475C555.185 197.555 562.754 191.548 570.358 184.453C571.29 183.587 572.351 183.098 573.437 182.514C573.903 182.262 574.08 181.86 573.967 181.308C573.676 179.848 572.916 178.935 571.687 178.566C569.803 178 567.685 177.56 565.331 177.249C555.59 175.963 545.333 176.909 535.889 179.9C530.277 181.68 524.383 183.943 519.049 186.839C506.88 193.444 495.932 201.816 486.206 211.953C477.91 220.599 470.046 229.674 462.613 239.177C462.534 239.283 462.441 239.296 462.336 239.214C462.266 239.161 462.253 239.087 462.296 238.991C462.868 237.755 463.321 236.612 463.654 235.564C465.3 230.421 467.258 225.172 468.458 219.928C471.38 207.148 472.457 194.273 471.69 181.302C471.29 174.551 470.36 167.398 468.899 159.843C468.632 158.451 467.333 156.06 465.677 157.389C464.811 158.083 464.059 158.967 463.421 160.04C457.492 170.023 452.951 180.181 448.757 191.28C446.725 196.657 444.904 202.949 443.294 210.157C441.252 219.328 440.771 229.821 442.139 238.63C443.015 244.254 444.253 249.636 445.852 254.776C446.566 257.06 446.323 259.563 445.361 261.847C442.942 267.568 440.227 273.426 437.216 279.423C435.775 282.292 434.528 284.989 433.474 287.514C431.872 291.356 430.34 295.341 428.605 299.187C428.437 299.566 428.24 299.584 428.015 299.24C427.903 299.07 427.842 298.87 427.832 298.64C427.634 294.212 427.526 289.62 427.51 284.863C427.5 283.064 427.095 278.952 426.295 272.527C425.836 268.822 425.252 265.347 424.545 262.102C423.015 255.086 421.318 248.625 419.454 242.721C417.041 235.077 413.654 226.975 409.291 218.414C407.896 215.676 406.413 213.125 404.839 210.763C404.383 210.083 403.778 209.521 403.025 209.079C402.819 208.957 402.581 208.916 402.35 208.962C402.12 209.007 401.911 209.137 401.761 209.328C401.28 209.934 401.24 210.593 401.077 211.337C398.605 222.597 397.202 233.88 396.868 245.186C396.62 253.538 397.152 261.536 398.464 269.179C400.123 278.842 403.227 288.419 407.774 297.912C409.093 300.669 410.833 303.592 412.404 306.36C414.754 310.488 417.416 314.329 419.756 318.819C420.602 320.444 420.92 321.913 420.708 323.223C420.153 326.68 419.551 330.135 418.904 333.589C417.952 338.664 416.964 344.147 415.939 350.038C415.427 352.978 414.44 362.327 412.979 378.085C412.973 378.156 412.941 378.211 412.885 378.25C412.876 378.257 412.864 378.262 412.853 378.263C412.841 378.265 412.829 378.264 412.818 378.26C412.807 378.256 412.797 378.249 412.789 378.24C412.781 378.23 412.775 378.219 412.771 378.207C411.469 373.797 410.256 369.391 409.132 364.989C408.075 360.844 407.057 357.368 406.079 354.559C403.593 347.418 400.806 340.979 397.716 335.241C393.092 326.659 387.15 318.679 379.889 311.301C376.488 307.842 373.112 304.5 369.091 301.95C368.358 301.486 367.865 301.672 367.614 302.508C367.214 303.815 367.047 305.263 367.113 306.854C367.604 318.914 369.235 331.511 372.824 343.099C374.473 348.416 375.604 351.865 376.215 353.449C378.053 358.213 380.151 362.927 382.511 367.592C384.362 371.247 386.831 375.455 389.917 380.216C391.573 382.773 393.695 385.511 396.283 388.429C401.505 394.327 406.659 399.477 411.745 403.88C412.789 404.783 413.393 405.991 413.555 407.503C414.83 419.34 416.461 430.795 418.448 441.868C419.221 446.16 419.731 450.347 420.361 454.47C420.45 455.069 420.328 455.122 419.994 454.629C419.632 454.098 419.429 453.418 419.037 452.871C415.265 447.627 411.502 442.149 407.447 437.251C402.394 431.141 396.944 425.486 391.097 420.286C381.619 411.849 371.575 404.326 360.391 398.721C359.469 398.259 358.334 398.003 357.312 397.865C357.273 397.86 357.232 397.864 357.194 397.877C357.156 397.89 357.121 397.911 357.091 397.94C357.062 397.969 357.038 398.004 357.022 398.043C357.007 398.083 356.999 398.125 357 398.168C357.06 400.315 357.408 402.417 358.046 404.475C361.08 414.261 365.15 423.805 370.256 433.106C372.586 437.35 375.01 441.126 377.529 444.434C380.953 448.929 384.279 453.002 387.508 456.654C389.425 458.821 391.287 460.693 393.095 462.269C398.476 466.959 403.816 470.792 409.118 473.767C414.115 476.572 419.201 478.972 424.377 480.966C426.325 481.715 429.413 483.256 430.187 485.45C430.699 486.906 431.358 488.248 432.165 489.477C432.254 489.608 432.307 489.754 432.323 489.913C432.353 490.147 432.393 490.322 432.542 490.497C432.955 490.983 433.255 491.532 433.444 492.144C433.583 492.598 433.745 493.026 433.93 493.43C437.628 501.46 441.833 509.426 446.546 517.328C448.513 520.626 450.459 524.021 452.386 527.513C452.826 528.314 452.664 528.494 451.9 528.055C447.769 525.678 443.459 523.277 438.971 520.851C434.219 518.286 428.982 515.853 423.261 513.55C422.752 513.349 422.233 513.111 421.705 512.839C421.169 512.569 420.617 512.334 420.049 512.132C416.499 510.878 412.89 510.021 409.222 509.56C409.05 509.539 408.898 509.472 408.766 509.359C408.607 509.227 408.422 509.18 408.21 509.215C408.048 509.243 407.89 509.227 407.734 509.167C406.793 508.799 405.753 508.554 404.616 508.434C403.57 508.317 402.633 507.775 401.558 507.706C400.873 507.66 400.178 507.526 399.47 507.302C398.783 507.086 398.092 506.936 397.398 506.851C392.814 506.291 388.209 506.024 383.582 506.049C381.192 506.064 378.233 506.314 376.131 507.642C375.891 507.795 375.715 508.04 375.638 508.326C375.56 508.612 375.588 508.919 375.714 509.183C376.104 509.998 376.62 510.689 377.261 511.255C382.718 516.069 388.298 520.918 394.002 525.802C395.262 526.883 396.471 527.83 397.631 528.645C400.222 530.462 403.697 532.75 408.057 535.509C408.086 535.527 408.12 535.532 408.156 535.525C408.222 535.514 408.286 535.523 408.349 535.552C408.382 535.566 408.412 535.585 408.438 535.61C408.954 536.063 409.509 536.434 410.104 536.72C410.659 536.986 411.211 537.303 411.76 537.671C412.824 538.383 413.978 539.009 415.22 539.547C416.202 539.972 417.154 540.466 418.076 541.029C420.191 542.319 422.443 543.546 424.833 544.711C426.538 545.544 428.182 546.11 429.765 546.411C429.878 546.433 429.878 546.438 429.765 546.427Z" stroke="#FEF6E6" stroke-width="2"/>
</svg>
