<svg width="527" height="527" viewBox="0 0 527 527" fill="none" xmlns="http://www.w3.org/2000/svg">
<g clip-path="url(#clip0_159_466)">
<path d="M221.283 132.362C231.408 127.617 242.36 124.931 254.138 124.303C268.583 123.535 282.082 126.26 294.636 132.481C308.463 139.336 320.127 148.944 329.627 161.306C337.103 171.03 343.025 181.827 347.393 193.698C352.164 206.657 355.015 220.836 356.605 234.258C359.039 254.823 359.683 275.203 359.713 296.34C359.713 296.851 359.928 297.259 360.357 297.565C365.527 301.246 370.35 304.838 374.824 308.341C375.153 308.599 375.527 308.736 375.945 308.753C376.088 308.759 376.228 308.709 376.336 308.615C376.444 308.52 376.513 308.387 376.527 308.244C377.079 302.672 377.889 297.191 378.956 291.801C380.558 283.707 382.355 275.558 384.345 267.355C386.791 257.274 388.554 247.064 389.635 236.723C390.002 233.223 390.246 229.799 390.366 226.45C390.97 209.395 389.386 193.185 385.616 177.821C382.758 166.177 378.841 154.993 373.866 144.271C368.397 132.483 361.312 121.191 352.611 110.397C338.839 93.3144 321.983 79.8855 302.042 70.1106C298.841 68.5426 295.528 67.1513 292.104 65.9368C281.121 62.0357 269.557 58.9376 257.993 58.0112C230.617 55.8119 204.751 60.1144 180.395 70.9186C172.366 74.4799 164.096 79.0809 155.583 84.7214C143.966 92.4171 133.601 101.401 124.488 111.674C124.408 111.764 124.351 111.872 124.322 111.988C124.293 112.105 124.293 112.227 124.321 112.344C124.349 112.46 124.406 112.568 124.485 112.657C124.564 112.747 124.664 112.815 124.776 112.857C134.435 116.504 143.952 120.994 153.329 126.326C159.141 129.63 165.837 134.057 173.416 139.609C179.473 144.045 185.33 149.366 190.796 154.395C190.827 154.424 190.864 154.446 190.904 154.461C190.945 154.475 190.987 154.481 191.03 154.479C191.073 154.476 191.115 154.465 191.153 154.447C191.191 154.428 191.226 154.401 191.254 154.369C193.889 151.374 196.702 148.644 199.694 146.181C206.659 140.454 213.855 135.848 221.283 132.362Z" fill="#92B29C" fill-opacity="0.76"/>
<path d="M351.273 310.529C350.46 312.875 349.373 314.955 348.01 316.766C343.828 322.304 338.314 324.815 331.47 324.301C331.061 324.27 330.857 324.46 330.857 324.872C330.888 339.769 330.903 355.605 330.903 372.379C330.903 373.908 331.748 375.014 332.962 375.837C338.139 379.361 343.243 382.53 348.273 385.343C354.905 389.055 362.138 392.035 369.97 394.282C380.31 397.247 392.383 398.029 401.848 392.296C403.869 391.071 405.651 389.445 407.195 387.417C412.949 379.852 412.347 370.547 408.744 362.04C406.236 356.132 402.87 350.388 398.647 344.809C393.682 338.256 387.673 331.636 380.619 324.949C373.983 318.657 368.492 313.881 364.145 310.621C360.312 307.743 356.62 305.036 353.069 302.5C352.901 302.38 352.877 302.236 352.997 302.068C357.094 296.422 357.13 288.409 352.58 282.954C352.474 282.823 352.436 282.674 352.467 282.506C352.879 280.358 353.088 278.281 353.095 276.274C353.116 270.633 353.244 264.905 352.694 259.388C351.479 247.287 348.419 235.992 343.512 225.504C338.381 214.531 330.77 205.062 321.13 197.723C317.332 194.834 313.038 192.137 308.249 189.632C303.397 187.094 298.59 185.409 293.828 184.579C290.895 184.064 286.227 183.524 283.695 185.289C282.444 186.159 280.473 186.262 279.506 184.944C277.102 181.65 280.257 177.708 283.741 177.358C286.743 177.056 289.778 177.35 292.845 178.238C301.488 180.743 309.079 184.471 315.618 189.421C317.111 190.554 317.231 190.422 315.979 189.025C312.402 185.032 307.775 181.619 303.133 178.542C295.856 173.714 288.424 170.253 280.839 168.156C267.588 164.502 254.283 164.216 240.922 167.297C233.642 168.978 226.945 171.879 220.83 175.999C220.779 176.034 220.72 176.057 220.658 176.064C220.596 176.071 220.534 176.063 220.475 176.041C220.417 176.019 220.365 175.983 220.324 175.936C220.283 175.889 220.254 175.833 220.239 175.773C219.439 172.472 217.96 169.304 215.802 166.267C215.742 166.182 215.714 166.079 215.724 165.975C215.733 165.871 215.779 165.774 215.854 165.701C223.944 157.889 233.302 152.614 243.928 149.876C263.258 144.904 282.377 148.95 299.263 159.526C302.068 161.281 304.692 163.602 307.189 165.758C308.183 166.616 309.11 167.628 309.968 168.794C311.198 170.467 310.107 172.937 308.866 174.296C308.708 174.464 308.726 174.613 308.918 174.744C320.758 182.697 330.981 192.635 339.586 204.557C339.891 204.979 340.227 205.381 340.594 205.762C340.64 205.809 340.698 205.843 340.762 205.86C340.826 205.876 340.894 205.875 340.957 205.855C341.02 205.835 341.077 205.798 341.12 205.748C341.163 205.698 341.191 205.637 341.202 205.571C341.236 205.348 341.231 205.129 341.186 204.912C340.39 201.042 339.268 197.321 337.82 193.75C335.004 186.805 331.859 180.597 328.387 175.125C327.447 173.646 325.575 171.079 322.772 167.425C315.747 158.28 306.684 150.483 296.932 144.786C279.521 134.617 258.662 132.491 238.956 137.349C227.291 140.225 216.506 145.932 206.6 154.472C203.537 157.114 200.365 160.162 197.085 163.617C197.033 163.669 197.003 163.739 196.999 163.813C196.996 163.886 197.018 163.959 197.064 164.018C200.389 168.355 203.403 173.131 206.106 178.346C206.223 178.573 206.173 178.751 205.957 178.881C200.358 182.254 195.223 186.167 190.554 190.621C184.364 196.522 178.981 202.703 174.404 209.163C174.181 209.476 174.03 209.815 173.951 210.182C173.941 210.225 173.942 210.269 173.952 210.312C173.963 210.354 173.984 210.393 174.013 210.426C174.042 210.459 174.079 210.485 174.12 210.502C174.161 210.519 174.205 210.525 174.25 210.522C178.823 210.148 183.09 209.87 187.049 209.688C201.071 209.047 214.842 210.21 228.36 213.178C236.043 214.861 243.851 216.821 251.437 219.395C279.361 228.864 303.711 243.767 324.486 264.102C326.877 266.442 329.394 269.185 332.036 272.331C332.18 272.503 332.149 272.635 331.943 272.728C331 273.15 330.095 273.681 329.231 274.323C324.266 277.998 321.395 282.669 320.616 288.337C318.382 304.667 335.751 319.164 351.078 310.369C351.29 310.249 351.356 310.302 351.273 310.529ZM340.469 302.552C339.195 302.483 337.947 302.153 336.798 301.582C335.648 301.01 334.619 300.207 333.769 299.22C332.919 298.232 332.264 297.079 331.843 295.827C331.422 294.574 331.242 293.246 331.314 291.918C331.459 289.237 332.621 286.722 334.543 284.925C336.465 283.127 338.991 282.196 341.564 282.336C342.838 282.405 344.085 282.734 345.235 283.306C346.385 283.878 347.414 284.68 348.264 285.668C349.114 286.655 349.768 287.808 350.19 289.061C350.611 290.314 350.791 291.642 350.719 292.969C350.574 295.65 349.412 298.166 347.49 299.963C345.568 301.76 343.042 302.691 340.469 302.552Z" fill="#92B29C" fill-opacity="0.76"/>
<path d="M151.518 268.291C158.687 262.759 166.221 258.873 174.888 256.47C178.106 255.578 181.246 254.806 184.306 254.154C190.074 252.933 196.764 252.215 204.377 252.003C212.028 251.79 218.818 251.91 224.747 252.363C229.732 252.747 235.604 253.48 242.363 254.561C257.247 256.943 271.086 260.958 284.668 266.258C295.53 270.499 305.837 275.623 315.588 281.631C315.636 281.661 315.69 281.68 315.746 281.688C315.802 281.696 315.859 281.693 315.914 281.678C315.969 281.663 316.02 281.637 316.065 281.601C316.11 281.566 316.147 281.522 316.174 281.471C317.801 278.394 319.676 275.388 321.799 272.455C321.853 272.382 321.876 272.292 321.864 272.203C321.853 272.114 321.807 272.033 321.738 271.976C289.16 246.059 249.105 230.29 207.81 225.169C195.947 223.697 183.915 223.532 172.006 224.49C164.091 225.124 156.831 226.205 150.226 227.732C145.344 228.864 140.082 230.526 134.442 232.719C131.158 233.995 127.35 235.724 125.008 238.056C123.691 239.368 124.524 241.149 125.904 241.962C128.048 243.235 129.961 244.581 131.642 246.002C139.482 252.634 145.944 260.035 151.029 268.204C151.054 268.244 151.087 268.278 151.126 268.305C151.165 268.332 151.209 268.35 151.255 268.358C151.302 268.366 151.349 268.364 151.394 268.353C151.439 268.342 151.481 268.321 151.518 268.291Z" fill="#92B29C" fill-opacity="0.76"/>
<path d="M172.577 443.931C171.637 443.968 170.795 443.618 170.05 442.881C168.053 440.91 164.616 436.638 164.595 433.607C164.351 395.88 164.333 359.285 164.538 323.822C164.54 323.761 164.528 323.701 164.502 323.645C164.476 323.59 164.437 323.541 164.389 323.503C160.073 319.914 157.265 315.346 155.964 309.798C155.899 309.52 155.721 309.386 155.429 309.396C155.247 309.403 155.158 309.499 155.161 309.685C155.27 314.455 155.419 319.041 155.419 323.745C155.433 348.897 155.438 373.443 155.434 397.381C155.434 408.329 155.649 416.894 156.078 423.077C156.654 431.342 159.16 440.23 162.783 448.001C164.055 450.724 171.244 464.028 175.732 460.837C176.761 460.103 177.276 459.077 177.276 457.759C177.29 449.23 177.326 440.601 177.384 431.872C177.389 430.931 177.816 430.04 178.326 429.273C182.265 423.331 187.073 417.816 192.751 412.727C197.177 408.758 201.385 405.435 205.376 402.759C208.814 400.45 212.812 398.103 217.372 395.718C219.589 394.559 221.615 393.457 223.45 392.414C223.79 392.221 224.069 391.937 224.258 391.595C224.447 391.252 224.538 390.865 224.521 390.474C224.449 388.803 224.411 387.089 224.407 385.333C224.363 361.395 224.375 338.527 224.443 316.73C224.449 315.227 226.837 314.718 228.123 314.517C243.321 312.145 258.956 307.533 266.979 293.056C268.537 290.239 269.643 287.716 270.299 285.486C270.961 283.228 271.201 280.847 271.019 278.342C270.89 276.546 268.775 276.006 267.272 275.785C260.122 274.728 252.867 274.445 245.508 274.935C235.683 275.594 225.581 276.881 216.405 279.979C214.288 280.693 212.289 281.521 210.409 282.465C209.539 282.897 208.767 283.808 208.772 284.832C208.817 302.704 208.802 319.202 208.726 334.326C208.726 334.796 208.572 335.197 208.263 335.53C204.695 339.435 200.963 343.181 197.069 346.77C197.008 346.827 196.935 346.87 196.857 346.899C196.778 346.927 196.695 346.94 196.611 346.936C196.528 346.933 196.447 346.912 196.371 346.877C196.296 346.841 196.229 346.791 196.174 346.729L187.25 336.837C186.955 336.513 186.792 336.091 186.792 335.654C186.727 319.415 186.689 303.126 186.679 286.788C186.679 285.187 186.972 282.923 185.253 282.027C182.769 280.727 180.113 279.514 177.286 278.389C173.409 276.845 169.247 275.913 164.801 275.594C162.119 275.404 159.119 275.502 158.918 279.027C158.651 283.755 159.035 288.692 160.071 293.839C160.984 298.343 162.526 302.419 164.698 306.067C166.638 309.324 168.913 311.506 172.237 313.478C173.097 313.992 173.437 314.883 173.437 315.85C173.502 361.314 173.498 403.711 173.426 443.04C173.427 443.27 173.338 443.491 173.18 443.657C173.022 443.823 172.806 443.921 172.577 443.931Z" fill="#92B29C" fill-opacity="0.76"/>
<path d="M282.794 297.57C274.606 313.771 258.729 322.628 241.524 326.261C240.279 326.524 239.028 327.018 237.84 327.486C236.91 327.853 236.447 328.516 236.45 329.473C236.512 359.563 236.57 394.761 236.625 435.068C236.63 436.643 235.765 438.362 234.669 439.366C231.726 442.062 227.969 444.373 224.51 446.478C224.433 446.527 224.369 446.594 224.325 446.675C224.281 446.755 224.258 446.845 224.258 446.936C224.272 450.696 224.268 454.541 224.248 458.469C224.244 459.087 224.387 459.651 224.675 460.163C225.72 462.02 227.619 461.501 229.271 460.754C239.842 455.953 249.285 450.714 259.486 444.147C273.68 435.007 286.747 425.141 298.686 414.549C308.063 406.233 317.78 397.031 326.138 387.757C326.584 387.263 326.913 386.762 327.126 386.254C327.208 386.06 327.231 385.847 327.191 385.64C327.152 385.434 327.052 385.245 326.905 385.096C322.921 381.051 322 376.414 321.959 370.887C321.822 352.987 321.796 335.803 321.882 319.334C321.883 319.186 321.852 319.04 321.79 318.907C321.727 318.773 321.635 318.655 321.521 318.562C313.428 311.964 309.319 303.251 309.196 292.423C309.192 292.226 309.134 292.033 309.027 291.866C308.919 291.7 308.767 291.567 308.588 291.481C301.277 288.026 294.286 285.016 287.616 282.449C286.937 282.189 286.597 282.422 286.597 283.149C286.597 283.829 286.721 284.513 286.638 285.198C286.1 289.435 284.818 293.559 282.794 297.57Z" fill="#92B29C" fill-opacity="0.76"/>
</g>
<defs>
<clipPath id="clip0_159_466">
<rect width="527" height="527" fill="white" transform="matrix(-1 0 0 1 527 0)"/>
</clipPath>
</defs>
</svg>
