<svg width="1024" height="1024" viewBox="0 0 1024 1024" fill="none" xmlns="http://www.w3.org/2000/svg">
<path fill-rule="evenodd" clip-rule="evenodd" d="M-0.5 -0.5C340.833 -0.5 682.167 -0.5 1023.5 -0.5C1023.5 340.833 1023.5 682.167 1023.5 1023.5C682.167 1023.5 340.833 1023.5 -0.5 1023.5C-0.5 682.167 -0.5 340.833 -0.5 -0.5Z" fill="#2A3242"/>
<path fill-rule="evenodd" clip-rule="evenodd" d="M711.124 865.059C711.457 712.891 711.124 560.891 710.124 409.059C675.734 411.139 654.901 395.472 647.624 362.059C644.133 333.524 655.3 313.357 681.124 301.559C676.013 291.922 668.179 285.755 657.624 283.059C656.957 278.059 656.957 273.059 657.624 268.059C658.124 267.559 658.624 267.059 659.124 266.559C749.376 264.898 839.71 264.564 930.124 265.559C930.957 266.392 931.791 267.226 932.624 268.059C933.123 273.382 933.29 278.715 933.124 284.059C923.195 285.667 916.195 291 912.124 300.059C912.232 301.001 912.565 301.834 913.124 302.559C937.119 315.439 947.286 335.606 943.624 363.059C934.705 395.942 913.205 411.276 879.124 409.059C878.791 561.06 879.124 713.06 880.124 865.059C892.395 869.091 898.395 877.591 898.124 890.559C897.776 894.426 897.61 898.26 897.624 902.059C910.587 910.45 915.754 922.45 913.124 938.059C925.946 936.055 931.78 941.388 930.624 954.059C929.874 954.685 929.04 955.185 928.124 955.559C839.124 956.226 750.124 956.226 661.124 955.559C659.82 954.755 659.153 953.588 659.124 952.059C660.32 940.539 666.653 935.872 678.124 938.059C674.684 922.701 679.517 911.034 692.624 903.059C692.722 894.982 693.389 886.982 694.624 879.059C697.894 871.686 703.394 867.019 711.124 865.059Z" fill="#1F2530"/>
<path fill-rule="evenodd" clip-rule="evenodd" d="M695.124 292.059C762.124 292.059 829.124 292.059 896.124 292.059C894.018 294.278 893.018 296.944 893.124 300.059C828.79 300.226 764.456 300.059 700.124 299.559C698.323 297.116 696.656 294.616 695.124 292.059Z" fill="#2A3242"/>
<path fill-rule="evenodd" clip-rule="evenodd" d="M689.124 284.059C760.293 283.726 831.293 284.06 902.124 285.059C900.153 287.367 898.153 289.701 896.124 292.059C829.124 292.059 762.124 292.059 695.124 292.059C692.739 289.675 690.739 287.009 689.124 284.059Z" fill="#2A3242"/>
<path fill-rule="evenodd" clip-rule="evenodd" d="M689.124 284.059C760.292 282.727 831.625 282.727 903.124 284.059C903 284.666 902.667 284.999 902.124 285.059C831.293 284.06 760.293 283.726 689.124 284.059Z" fill="#2A3242"/>
<path fill-rule="evenodd" clip-rule="evenodd" d="M695.124 315.059C717.311 313.267 731.644 322.933 738.124 344.059C734.791 345.392 731.457 345.392 728.124 344.059C720.494 328.744 708.494 323.577 692.124 328.559C675.708 337.927 671.875 351.093 680.624 368.059C691.504 380.499 704.004 382.333 718.124 373.559C721.25 371.109 723.583 368.109 725.124 364.559C728.506 363.735 731.84 363.902 735.124 365.059C727.955 383.671 714.288 391.837 694.124 389.559C678.307 384.75 668.807 374.25 665.624 358.059C663.12 335.024 672.953 320.69 695.124 315.059Z" fill="#2A3242"/>
<path fill-rule="evenodd" clip-rule="evenodd" d="M758.123 321.059C760.79 321.059 763.456 321.059 766.123 321.059C766.289 329.732 766.123 338.399 765.623 347.059C763.354 349.613 761.021 349.613 758.623 347.059C758.123 338.399 757.957 329.732 758.123 321.059Z" fill="#2A3242"/>
<path fill-rule="evenodd" clip-rule="evenodd" d="M806.124 321.059C806.29 330.065 806.124 339.065 805.624 348.059C803.032 349.541 800.699 349.207 798.624 347.059C798.125 343.407 797.959 339.741 798.124 336.059C799.111 331.254 799.445 326.254 799.124 321.059C801.457 321.059 803.791 321.059 806.124 321.059Z" fill="#2A3242"/>
<path fill-rule="evenodd" clip-rule="evenodd" d="M864.124 343.059C865.728 342.272 866.395 340.939 866.124 339.059C875.667 325.499 888 322.332 903.124 329.559C916.744 341.448 918.578 354.948 908.624 370.059C898.681 380.239 887.514 381.739 875.124 374.559C864.99 366.323 861.323 355.823 864.124 343.059Z" fill="#1F2530"/>
<path fill-rule="evenodd" clip-rule="evenodd" d="M806.124 321.059C803.791 321.059 801.457 321.059 799.124 321.059C799.445 326.254 799.111 331.254 798.124 336.059C798.124 330.726 798.124 325.392 798.124 320.059C801.009 319.753 803.676 320.086 806.124 321.059Z" fill="#2A3242"/>
<path fill-rule="evenodd" clip-rule="evenodd" d="M819.123 321.059C821.456 321.059 823.79 321.059 826.123 321.059C826.123 329.726 826.123 338.392 826.123 347.059C824.083 349.693 821.916 349.693 819.623 347.059C819.123 338.399 818.957 329.732 819.123 321.059Z" fill="#2A3242"/>
<path fill-rule="evenodd" clip-rule="evenodd" d="M862.124 326.059C860.851 331.183 862.184 335.516 866.124 339.059C866.395 340.939 865.728 342.272 864.124 343.059C860.896 343.973 857.563 344.306 854.124 344.059C854.508 337.019 857.175 331.019 862.124 326.059Z" fill="#2A3242"/>
<path fill-rule="evenodd" clip-rule="evenodd" d="M819.124 321.059C821.572 320.086 824.239 319.753 827.124 320.059C827.451 329.241 827.117 338.241 826.124 347.059C826.124 338.392 826.124 329.726 826.124 321.059C823.791 321.059 821.457 321.059 819.124 321.059Z" fill="#2A3242"/>
<path fill-rule="evenodd" clip-rule="evenodd" d="M778.123 321.059C780.79 321.059 783.456 321.059 786.123 321.059C786.289 330.065 786.123 339.065 785.623 348.059C782.742 349.587 780.409 348.921 778.623 346.059C778.123 337.732 777.957 329.399 778.123 321.059Z" fill="#2A3242"/>
<path fill-rule="evenodd" clip-rule="evenodd" d="M697.124 344.059C708.274 341.717 713.107 346.051 711.624 357.059C706.273 364.538 700.607 364.871 694.624 358.059C692.122 352.731 692.956 348.065 697.124 344.059Z" fill="#2A3242"/>
<path fill-rule="evenodd" clip-rule="evenodd" d="M854.124 344.059C857.563 344.306 860.896 343.973 864.124 343.059C861.323 355.823 864.99 366.323 875.124 374.559C887.514 381.739 898.681 380.239 908.624 370.059C918.578 354.948 916.744 341.448 903.124 329.559C888 322.332 875.667 325.499 866.124 339.059C862.184 335.516 860.851 331.183 862.124 326.059C877.741 312.762 894.407 311.595 912.124 322.559C927.919 338.137 930.419 355.637 919.624 375.059C903.445 392.526 885.612 394.526 866.124 381.059C855.447 370.745 851.447 358.412 854.124 344.059Z" fill="#2A3242"/>
<path fill-rule="evenodd" clip-rule="evenodd" d="M886.124 343.059C895.794 343.88 899.294 348.88 896.624 358.059C888.056 365.711 882.223 363.877 879.124 352.559C880.141 348.334 882.474 345.167 886.124 343.059Z" fill="#2A3242"/>
<path fill-rule="evenodd" clip-rule="evenodd" d="M840.123 371.059C825.638 372.392 810.805 373.058 795.623 373.059C780.441 373.058 765.608 372.392 751.123 371.059C750.884 369.092 751.217 367.258 752.123 365.559C781.121 365.059 810.121 364.892 839.123 365.059C839.456 367.059 839.79 369.059 840.123 371.059Z" fill="#2A3242"/>
<path fill-rule="evenodd" clip-rule="evenodd" d="M751.124 371.059C765.609 372.392 780.442 373.058 795.624 373.059C810.806 373.058 825.639 372.392 840.124 371.059C841.11 372.985 842.11 374.985 843.124 377.059C827.638 378.392 811.805 379.058 795.624 379.059C779.62 379.059 763.787 378.726 748.124 378.059C748.888 375.541 749.888 373.208 751.124 371.059Z" fill="#2A3242"/>
<path fill-rule="evenodd" clip-rule="evenodd" d="M843.124 377.059C844.028 377.768 844.361 378.768 844.124 380.059C811.784 380.392 779.45 380.059 747.124 379.059C747.248 378.452 747.581 378.119 748.124 378.059C763.787 378.726 779.62 379.059 795.624 379.059C811.805 379.058 827.638 378.392 843.124 377.059Z" fill="#2A3242"/>
<path fill-rule="evenodd" clip-rule="evenodd" d="M802.124 859.059C802.124 716.392 802.124 573.726 802.124 431.059C797.791 431.059 793.457 431.059 789.124 431.059C789.124 573.392 789.124 715.726 789.124 858.059C787.958 709.893 787.791 561.56 788.624 413.059C791.768 407.45 795.935 406.617 801.124 410.559C801.815 411.626 802.315 412.793 802.624 414.059C803.457 562.56 803.29 710.893 802.124 859.059Z" fill="#2A3242"/>
<path fill-rule="evenodd" clip-rule="evenodd" d="M771.124 860.059C771.124 717.059 771.124 574.059 771.124 431.059C767.124 431.059 763.124 431.059 759.124 431.059C759.124 573.392 759.124 715.726 759.124 858.059C757.958 709.893 757.791 561.56 758.624 413.059C762.496 406.803 766.829 406.47 771.624 412.059C772.457 561.56 772.29 710.893 771.124 860.059Z" fill="#2A3242"/>
<path fill-rule="evenodd" clip-rule="evenodd" d="M834.124 445.059C834.29 454.398 834.124 463.732 833.624 473.059C833.452 468.688 832.952 464.355 832.124 460.059C830.818 461.471 829.984 463.138 829.624 465.059C829.241 464.503 828.741 464.17 828.124 464.059C828.124 453.059 828.124 442.059 828.124 431.059C825.124 431.059 822.124 431.059 819.124 431.059C819.124 573.392 819.124 715.726 819.124 858.059C817.958 709.893 817.791 561.56 818.624 413.059C822.18 407.482 826.68 406.648 832.124 410.559C832.75 411.309 833.25 412.143 833.624 413.059C834.124 423.72 834.291 434.387 834.124 445.059Z" fill="#2A3242"/>
<path fill-rule="evenodd" clip-rule="evenodd" d="M733.124 408.059C737.307 407.405 740.14 409.071 741.624 413.059C742.291 562.059 742.291 711.059 741.624 860.059C738.057 865.355 734.39 865.355 730.624 860.059C729.957 711.392 729.957 562.726 730.624 414.059C730.86 411.748 731.693 409.748 733.124 408.059Z" fill="#2A3242"/>
<path fill-rule="evenodd" clip-rule="evenodd" d="M853.124 408.059C855.949 407.64 858.115 408.64 859.624 411.059C859.797 559.403 860.297 707.737 861.124 856.059C861.527 860.605 859.527 863.271 855.124 864.059C852.52 863.29 850.686 861.623 849.624 859.059C848.957 710.059 848.957 561.059 849.624 412.059C851 410.854 852.166 409.521 853.124 408.059Z" fill="#2A3242"/>
<path fill-rule="evenodd" clip-rule="evenodd" d="M834.124 445.059C835.457 572.726 835.457 700.392 834.124 828.059C834.291 768.391 834.124 708.725 833.624 649.059C833.291 662.392 832.957 675.726 832.624 689.059C830.774 694.496 829.774 700.162 829.624 706.059C829.456 683.889 828.956 661.889 828.124 640.059C828.124 581.392 828.124 522.726 828.124 464.059C828.741 464.17 829.241 464.503 829.624 465.059C829.984 463.138 830.818 461.471 832.124 460.059C832.952 464.355 833.452 468.688 833.624 473.059C834.124 463.732 834.29 454.398 834.124 445.059Z" fill="#2A3242"/>
<path fill-rule="evenodd" clip-rule="evenodd" d="M828.124 464.059C828.124 522.726 828.124 581.392 828.124 640.059C828.291 714.06 828.124 788.06 827.624 862.059C826.907 862.603 826.407 863.27 826.124 864.059C821.959 864.149 819.626 862.149 819.124 858.059C819.124 715.726 819.124 573.392 819.124 431.059C822.124 431.059 825.124 431.059 828.124 431.059C828.124 442.059 828.124 453.059 828.124 464.059Z" fill="#2A3242"/>
<path fill-rule="evenodd" clip-rule="evenodd" d="M710.124 409.059C711.124 560.891 711.457 712.891 711.124 865.059C710.045 854.222 709.045 843.222 708.124 832.059C708.968 782.75 708.968 741.417 708.124 708.059C706.457 708.059 704.791 708.059 703.124 708.059C703.124 697.392 703.124 686.726 703.124 676.059C704.457 676.059 705.791 676.059 707.124 676.059C707.146 671.966 707.813 667.966 709.124 664.059C708.391 646.183 708.391 628.35 709.124 610.559C709.261 607.474 708.594 604.641 707.124 602.059C707.957 598.726 708.791 595.392 709.624 592.059C710.124 531.727 710.291 471.393 710.124 411.059C708.751 411.216 707.417 411.049 706.124 410.559C707.682 410.349 709.015 409.849 710.124 409.059Z" fill="#2A3242"/>
<path fill-rule="evenodd" clip-rule="evenodd" d="M771.124 860.059C768.792 864.231 765.459 865.065 761.124 862.559C760.042 861.229 759.375 859.729 759.124 858.059C759.124 715.726 759.124 573.392 759.124 431.059C763.124 431.059 767.124 431.059 771.124 431.059C771.124 574.059 771.124 717.059 771.124 860.059Z" fill="#2A3242"/>
<path fill-rule="evenodd" clip-rule="evenodd" d="M828.124 640.059C828.956 661.889 829.456 683.889 829.624 706.059C829.774 700.162 830.774 694.496 832.624 689.059C832.957 675.726 833.291 662.392 833.624 649.059C834.124 708.725 834.291 768.391 834.124 828.059C834.29 838.065 834.124 848.065 833.624 858.059C832.112 861.416 829.612 863.416 826.124 864.059C826.407 863.27 826.907 862.603 827.624 862.059C828.124 788.06 828.291 714.06 828.124 640.059Z" fill="#2A3242"/>
<path fill-rule="evenodd" clip-rule="evenodd" d="M802.124 859.059C799.775 864.036 796.109 865.203 791.124 862.559C790.042 861.229 789.375 859.729 789.124 858.059C789.124 715.726 789.124 573.392 789.124 431.059C793.457 431.059 797.791 431.059 802.124 431.059C802.124 573.726 802.124 716.392 802.124 859.059Z" fill="#2A3242"/>
<path fill-rule="evenodd" clip-rule="evenodd" d="M880.124 895.059C879.197 892.983 877.531 891.816 875.124 891.559C820.792 891.059 766.458 890.892 712.124 891.059C712.502 888.638 713.169 886.305 714.124 884.059C715.307 883.055 716.64 882.221 718.124 881.559C769.791 880.892 821.457 880.892 873.124 881.559C879.875 883.896 882.208 888.396 880.124 895.059Z" fill="#2A3242"/>
<path fill-rule="evenodd" clip-rule="evenodd" d="M714.123 884.059C713.168 886.305 712.501 888.638 712.123 891.059C766.457 890.892 820.791 891.059 875.123 891.559C877.53 891.816 879.196 892.983 880.123 895.059C878.95 897.063 877.283 898.563 875.123 899.559C822.123 900.226 769.123 900.226 716.123 899.559C709.242 895.025 708.575 889.858 714.123 884.059Z" fill="#2A3242"/>
<path fill-rule="evenodd" clip-rule="evenodd" d="M895.123 928.059C829.456 928.059 763.79 928.059 698.123 928.059C698.36 929.35 698.027 930.35 697.123 931.059C695.016 925.433 696.683 921.267 702.123 918.559C764.123 917.892 826.123 917.892 888.123 918.559C892.22 920.481 894.553 923.647 895.123 928.059Z" fill="#2A3242"/>
<path fill-rule="evenodd" clip-rule="evenodd" d="M895.124 928.059C895.371 931.064 894.371 933.564 892.124 935.559C828.124 936.226 764.124 936.226 700.124 935.559C698.483 934.43 697.483 932.93 697.124 931.059C698.028 930.35 698.361 929.35 698.124 928.059C763.791 928.059 829.457 928.059 895.124 928.059Z" fill="#2A3242"/>
</svg>
