<svg width="923" height="923" viewBox="0 0 923 923" fill="none" xmlns="http://www.w3.org/2000/svg">
<g clip-path="url(#clip0_165_1529)">
<path d="M350.38 50.49C350.053 50.3966 349.727 50.43 349.4 50.59C348.373 51.0966 347.797 51.92 347.67 53.06C346.81 61.02 347.07 69.35 346.66 77.58C345.867 93.18 345.173 109.153 344.58 125.5C344.51 127.28 344.09 128.97 343.07 130.46C335.883 140.947 328.737 151.95 321.63 163.47C321.35 163.917 320.99 164.273 320.55 164.54C320.461 164.593 320.36 164.624 320.256 164.631C320.153 164.638 320.049 164.62 319.953 164.579C319.858 164.538 319.773 164.475 319.707 164.395C319.64 164.316 319.593 164.221 319.57 164.12C319.35 163.22 319.333 162.263 319.52 161.25C324.133 136.243 328.99 110.93 334.09 85.31C335.297 79.2233 336.5 72.7033 337.7 65.75C340.547 49.2433 343.893 32.6233 347.74 15.89C348.047 14.5766 348.547 13.2833 349.24 12.01C349.31 11.8828 349.413 11.7767 349.538 11.7027C349.663 11.6288 349.805 11.5898 349.95 11.5898C350.095 11.5898 350.238 11.6288 350.363 11.7027C350.488 11.7767 350.59 11.8828 350.66 12.01C351.047 12.6966 351.34 13.4366 351.54 14.23C353.127 20.57 354.443 26.4666 355.49 31.92C363.857 75.5933 372.053 119.117 380.08 162.49C380.167 162.957 380.133 163.41 379.98 163.85C379.94 163.972 379.865 164.08 379.766 164.162C379.666 164.244 379.545 164.295 379.418 164.311C379.29 164.327 379.16 164.306 379.044 164.251C378.927 164.196 378.829 164.109 378.76 164C371.38 152.7 363.95 141.52 356.47 130.46C355.417 128.907 354.86 126.82 354.8 124.2C354.307 104.3 353.86 84.2533 353.46 64.06C353.393 60.8333 353.22 57.2733 352.94 53.38C352.833 51.92 351.98 50.9566 350.38 50.49Z" fill="#fcf2de"/>
<path d="M348.93 145.45C348.117 146.337 347.397 147.293 346.77 148.32C343.057 154.413 339.377 160.593 335.73 166.86C334.92 168.25 334.17 169.49 334.66 171.19C338.027 182.77 340.09 194.633 340.85 206.78C340.879 207.216 340.772 207.65 340.543 208.024C340.313 208.398 339.974 208.694 339.57 208.87L337.27 209.86C336.383 210.247 335.87 209.96 335.73 209C333.93 196.8 332.36 183.11 326.46 172.96C325.36 171.08 328.2 166.49 329.22 164.92C335.587 155.147 342.073 145.13 348.68 134.87C348.792 134.697 348.944 134.554 349.124 134.455C349.304 134.355 349.506 134.301 349.712 134.298C349.918 134.295 350.121 134.343 350.304 134.438C350.487 134.532 350.643 134.67 350.76 134.84C357.353 144.493 363.493 154.007 369.18 163.38C370.78 166.02 373.7 170.49 372.23 173.66C367.31 184.28 365.43 195.71 363.66 208.46C363.493 209.68 362.827 210.097 361.66 209.71L361.28 209.58C359.693 209.06 358.943 207.967 359.03 206.3C359.543 196.073 361.01 186.293 363.43 176.96C363.99 174.833 364.707 172.797 365.58 170.85C365.716 170.555 365.776 170.23 365.755 169.903C365.734 169.577 365.633 169.26 365.46 168.98L351.29 145.68C351.171 145.484 351.008 145.319 350.814 145.197C350.62 145.075 350.4 145 350.171 144.977C349.942 144.955 349.711 144.986 349.496 145.068C349.281 145.15 349.087 145.281 348.93 145.45Z" fill="#fcf2de"/>
<path d="M264 688.79C264.03 689.71 264.76 690.68 265.57 691.05C267.75 692.043 268.17 693.79 266.83 696.29C266.583 696.763 266.273 696.807 265.9 696.42C265.633 696.14 265.43 695.803 265.29 695.41C265.137 695.003 265.28 694.797 265.72 694.79L266.21 694.78C266.737 694.773 266.873 694.54 266.62 694.08C265.98 692.927 265.247 692.017 264.42 691.35C264.167 691.143 263.963 691.183 263.81 691.47L263.68 691.72C263.605 691.861 263.578 692.023 263.604 692.181C263.629 692.34 263.705 692.487 263.82 692.6C264.2 692.967 264.483 693.393 264.67 693.88C264.83 694.287 264.703 694.417 264.29 694.27C264.01 694.177 263.74 694.053 263.48 693.9C263.227 693.76 263.06 693.547 262.98 693.26C262.713 692.36 262.573 691.523 262.56 690.75C262.56 690.397 262.38 690.223 262.02 690.23C261.62 690.237 261.243 690.343 260.89 690.55C260.523 690.763 260.5 691.007 260.82 691.28C261.833 692.187 262.143 693.397 261.75 694.91C261.703 695.09 261.59 695.19 261.41 695.21L261.07 695.25C260.937 695.27 260.877 695.213 260.89 695.08C260.943 694.16 260.737 693.327 260.27 692.58C260.037 692.207 259.903 691.8 259.87 691.36C259.73 689.16 259.29 687.04 259.44 684.82C259.55 683.02 259.25 681.26 259.25 679.41C259.223 632.27 259.113 585.15 258.92 538.05C258.907 535.977 257.867 534.857 255.8 534.69C255.393 534.663 254.993 534.7 254.6 534.8C253.173 535.187 252.427 536.117 252.36 537.59C252.107 543.183 251.997 548.91 252.03 554.77C252.183 578.47 252.287 601.46 252.34 623.74C252.4 647.507 251.96 670.967 251.02 694.12C250.967 695.34 250.857 696.58 250.69 697.84C250.53 699.033 250.457 700.293 250.47 701.62C250.47 701.96 250.3 702.13 249.96 702.13H249.55C249.237 702.13 249.093 701.977 249.12 701.67C249.23 700.4 249.12 699 248.19 698.03C246.943 696.723 246.357 694.883 246.43 692.51C246.563 688.33 246.59 684.127 246.51 679.9C246.443 676.227 246.397 672.287 246.37 668.08C246.137 631.58 246.067 588.887 246.16 540C246.293 472.02 246.333 400.437 246.28 325.25C246.25 285.75 246.54 246.19 246.25 206.36C246.237 203.873 244.957 202.637 242.41 202.65C242.363 202.65 242.317 202.647 242.27 202.64C239.763 202.407 238.51 203.787 238.51 206.78C238.35 337.227 238.417 444.717 238.71 529.25C238.923 590.103 238.843 642.563 238.47 686.63C238.47 687.283 238.203 688.49 237.67 690.25C237.55 690.63 237.553 691.01 237.68 691.39C237.853 691.957 237.92 692.517 237.88 693.07C237.862 693.302 237.774 693.522 237.627 693.701C237.48 693.88 237.282 694.009 237.06 694.07C235.153 694.597 234.083 695.85 233.85 697.83C233.844 697.89 233.822 697.947 233.787 697.996C233.752 698.044 233.705 698.083 233.65 698.107C233.595 698.131 233.535 698.141 233.475 698.134C233.415 698.128 233.358 698.106 233.31 698.07C233.057 697.883 232.93 697.637 232.93 697.33C232.497 643.963 232.377 590.93 232.57 538.23C232.577 535.877 231.423 534.687 229.11 534.66C228.777 534.66 228.477 534.753 228.21 534.94C226.437 536.153 225.547 537.68 225.54 539.52C225.433 569.92 225.483 600.437 225.69 631.07C225.82 650.83 225.31 670.98 224.93 690.36C224.91 691.4 224.733 692.36 224.4 693.24C224.113 693.987 224.157 694.677 224.53 695.31C224.763 695.717 224.67 696.023 224.25 696.23C223.357 696.677 222.55 697.33 221.83 698.19C221.537 698.543 221.37 698.49 221.33 698.03C221.283 697.423 221.537 697.01 222.09 696.79C222.269 696.719 222.428 696.604 222.551 696.456C222.674 696.307 222.757 696.13 222.794 695.941C222.831 695.752 222.82 695.557 222.761 695.373C222.703 695.189 222.599 695.023 222.46 694.89C221.6 694.077 221.577 693.143 222.39 692.09C222.697 691.703 222.667 691.347 222.3 691.02C221.9 690.647 221.427 690.353 220.88 690.14C220.476 689.977 220.128 689.699 219.88 689.34L218.79 687.77C218.769 687.739 218.742 687.714 218.71 687.694C218.678 687.675 218.642 687.663 218.604 687.658C218.567 687.653 218.528 687.657 218.491 687.667C218.455 687.678 218.42 687.696 218.39 687.72L218.08 687.97C217.953 688.077 217.943 688.193 218.05 688.32C218.763 689.173 219.57 689.99 220.47 690.77C220.983 691.203 221.087 691.667 220.78 692.16C220.7 692.288 220.585 692.389 220.448 692.452C220.311 692.516 220.159 692.538 220.01 692.517C219.861 692.496 219.721 692.432 219.608 692.333C219.494 692.234 219.412 692.105 219.37 691.96C219.263 691.573 219.1 691.223 218.88 690.91C218.613 690.517 218.36 690.523 218.12 690.93C217.793 691.463 217.77 691.993 218.05 692.52C218.303 692.993 218.68 693.137 219.18 692.95C219.56 692.81 219.84 692.92 220.02 693.28C220.707 694.693 220.74 695.82 220.12 696.66C219.393 697.647 219.083 697.53 219.19 696.31C219.203 696.117 219.287 695.947 219.44 695.8C219.793 695.487 219.857 695.12 219.63 694.7C219.437 694.333 219.123 694.127 218.69 694.08C218.237 694.02 218 694.217 217.98 694.67L217.95 695.26C217.93 695.72 217.69 695.963 217.23 695.99C216.95 696.003 216.7 695.927 216.48 695.76C216.388 695.692 216.315 695.603 216.266 695.5C216.217 695.397 216.195 695.283 216.201 695.169C216.207 695.055 216.241 694.944 216.3 694.847C216.359 694.749 216.442 694.668 216.54 694.61C217.4 694.097 217.65 693.51 217.29 692.85C216.77 691.9 215.61 691.48 214.85 690.59C214.63 690.33 214.35 690.203 214.01 690.21C213.717 690.217 213.563 690.077 213.55 689.79C213.543 689.55 213.59 689.323 213.69 689.11C214.24 687.97 213.39 687.06 213.28 685.91C213.067 683.683 212.91 681.297 212.81 678.75C212.317 666.003 212.07 651.003 212.07 633.75C212.09 513.943 212.01 398.61 211.83 287.75C211.83 286.363 211.213 284.49 209.98 282.13C206.353 275.19 202.583 267.97 198.67 260.47C198.017 259.223 197.987 257.763 198.58 256.09C211.67 219.32 226.39 183.6 241.2 147.73C241.54 146.903 242.07 146.757 242.79 147.29C243.19 147.59 243.483 147.963 243.67 148.41C252.91 170.47 266.833 206.357 285.44 256.07C286.067 257.743 285.963 259.35 285.13 260.89C280.663 269.177 276.883 276.687 273.79 283.42C272.763 285.66 272.25 287.957 272.25 290.31C272.23 407.43 272.24 526 272.28 646.02C272.28 656.11 271.64 666.52 271.21 676.76C270.99 682.05 271.19 687.31 270.42 692.49C270.16 694.217 269.617 694.313 268.79 692.78C268.303 691.873 267.607 691.237 266.7 690.87C266.5 690.79 266.323 690.663 266.183 690.499C266.044 690.335 265.947 690.14 265.9 689.93C265.74 689.223 265.347 688.697 264.72 688.35C264.645 688.31 264.561 688.29 264.475 688.293C264.39 688.295 264.307 688.32 264.235 688.365C264.162 688.409 264.102 688.472 264.061 688.546C264.02 688.621 263.999 688.705 264 688.79ZM265.94 667.56C265.959 667.582 265.983 667.599 266.01 667.61C266.037 667.621 266.066 667.626 266.095 667.624C266.124 667.622 266.152 667.613 266.177 667.599C266.202 667.584 266.224 667.564 266.24 667.54C266.553 667.093 266.483 666.66 266.03 666.24C265.77 666.007 265.623 666.063 265.59 666.41C265.543 666.837 265.66 667.22 265.94 667.56ZM266.333 674.909C266.387 674.889 266.429 674.837 266.456 674.754C266.483 674.672 266.495 674.561 266.49 674.428C266.485 674.296 266.465 674.144 266.429 673.981C266.394 673.818 266.345 673.648 266.284 673.48C266.161 673.141 266 672.832 265.835 672.62C265.671 672.408 265.517 672.312 265.407 672.351C265.353 672.371 265.311 672.423 265.284 672.506C265.257 672.588 265.246 672.699 265.25 672.832C265.255 672.964 265.275 673.116 265.311 673.279C265.346 673.442 265.396 673.612 265.456 673.78C265.579 674.119 265.74 674.428 265.905 674.64C266.069 674.852 266.223 674.949 266.333 674.909ZM269.282 677.372C269.389 677.341 269.463 677.212 269.488 677.013C269.512 676.815 269.486 676.563 269.414 676.314C269.378 676.19 269.332 676.07 269.279 675.962C269.226 675.854 269.166 675.759 269.103 675.682C269.041 675.605 268.976 675.549 268.913 675.516C268.851 675.482 268.791 675.473 268.738 675.488C268.631 675.519 268.557 675.648 268.533 675.847C268.508 676.045 268.534 676.297 268.607 676.547C268.642 676.67 268.688 676.79 268.741 676.898C268.795 677.006 268.854 677.102 268.917 677.178C268.98 677.255 269.044 677.311 269.107 677.345C269.169 677.378 269.229 677.387 269.282 677.372ZM266.03 677.96C266.457 678.073 266.623 677.917 266.53 677.49C266.443 677.09 266.24 676.753 265.92 676.48C265.673 676.273 265.393 676.223 265.08 676.33C264.807 676.43 264.627 676.613 264.54 676.88C264.413 677.307 264.563 677.577 264.99 677.69L266.03 677.96ZM268.32 679.36L268.86 680.48C269.16 681.113 269.367 681.083 269.48 680.39C269.573 679.803 269.48 679.277 269.2 678.81C269.08 678.61 268.91 678.553 268.69 678.64C268.543 678.7 268.43 678.797 268.35 678.93C268.263 679.07 268.253 679.213 268.32 679.36ZM266.12 680.12C265.607 679.693 265.143 679.663 264.73 680.03C264.397 680.33 264.423 680.593 264.81 680.82C265.183 681.033 265.577 681.063 265.99 680.91C266.483 680.723 266.527 680.46 266.12 680.12ZM219.43 681.82C219.063 681.713 218.95 681.84 219.09 682.2C219.277 682.68 219.647 682.893 220.2 682.84C220.56 682.807 220.83 682.653 221.01 682.38C221.383 681.813 221.243 681.63 220.59 681.83C220.217 681.943 219.83 681.94 219.43 681.82ZM265.82 684.29L266.27 683.58C266.3 683.533 266.32 683.479 266.328 683.424C266.337 683.368 266.334 683.311 266.32 683.256C266.306 683.201 266.281 683.149 266.247 683.104C266.213 683.058 266.169 683.019 266.12 682.99C265.573 682.677 264.96 682.55 264.28 682.61C263.867 682.643 263.517 682.507 263.23 682.2L262.86 681.79C262.74 681.663 262.64 681.677 262.56 681.83C262.467 682.01 262.507 682.22 262.68 682.46C262.745 682.545 262.832 682.611 262.93 682.65C263.897 683.01 264.613 683.557 265.08 684.29C265.327 684.677 265.573 684.677 265.82 684.29ZM269.53 683.75C269.51 682.49 268.977 681.953 267.93 682.14C267.844 682.157 267.763 682.197 267.698 682.255C267.632 682.314 267.583 682.389 267.557 682.473C267.53 682.557 267.527 682.646 267.547 682.732C267.567 682.818 267.609 682.897 267.67 682.96L268.75 684.08C269.29 684.633 269.55 684.523 269.53 683.75ZM263 685.73C263.86 685.98 264.38 686.65 264.9 687.33C265.307 687.857 265.567 687.797 265.68 687.15C265.82 686.383 265.483 685.907 264.67 685.72C263.81 685.52 263.13 685.117 262.63 684.51C262.257 684.07 262.097 684.137 262.15 684.71C262.203 685.243 262.487 685.583 263 685.73ZM267.56 686.3C268.14 686.75 268.51 687.54 268.93 687.82C269.012 687.875 269.109 687.905 269.207 687.905C269.306 687.906 269.403 687.877 269.485 687.822C269.568 687.768 269.632 687.69 269.67 687.599C269.709 687.508 269.719 687.407 269.7 687.31C269.473 686.03 268.863 685.393 267.87 685.4C266.91 685.4 266.807 685.7 267.56 686.3ZM262.752 688.997C262.876 688.952 262.964 688.821 262.996 688.632C263.028 688.444 263 688.213 262.92 687.991C262.841 687.769 262.714 687.573 262.57 687.448C262.425 687.323 262.273 687.278 262.149 687.323C262.024 687.368 261.936 687.499 261.904 687.688C261.873 687.877 261.9 688.107 261.98 688.329C262.06 688.552 262.186 688.747 262.331 688.872C262.475 688.997 262.627 689.042 262.752 688.997ZM269.659 691.566C269.815 691.45 269.835 691.167 269.716 690.778C269.597 690.39 269.349 689.928 269.025 689.494C268.865 689.279 268.692 689.078 268.514 688.901C268.337 688.724 268.159 688.576 267.992 688.465C267.824 688.354 267.67 688.281 267.538 688.252C267.405 688.223 267.298 688.237 267.221 688.294C267.066 688.41 267.045 688.693 267.164 689.082C267.283 689.471 267.531 689.933 267.855 690.366C268.015 690.581 268.189 690.783 268.366 690.959C268.543 691.136 268.721 691.284 268.888 691.395C269.056 691.507 269.21 691.579 269.343 691.608C269.475 691.637 269.582 691.623 269.659 691.566Z" fill="#fcf2de"/>
<path d="M685.18 392.53C684.4 390.197 683.03 388.393 681.07 387.12C679.963 386.407 679.707 386.637 680.3 387.81C680.447 388.09 680.463 388.387 680.35 388.7C680.17 389.2 679.853 389.31 679.4 389.03C678.773 388.63 678.437 388.05 678.39 387.29C678.363 386.917 678.217 386.6 677.95 386.34C676.617 385.027 675.593 383.53 674.88 381.85C672.873 377.13 671.223 372.193 669.93 367.04C667.417 357.033 662.113 349.387 654.02 344.1C653.693 343.887 653.46 343.597 653.32 343.23C652.947 342.283 652.727 341.27 652.66 340.19C652.193 332.81 651.8 325.643 651.48 318.69C651.475 318.578 651.492 318.466 651.532 318.362C651.571 318.257 651.631 318.161 651.709 318.08C651.787 318 651.88 317.936 651.984 317.893C652.087 317.85 652.198 317.828 652.31 317.83C656.663 317.863 661.287 317.71 666.18 317.37C667.407 317.283 668.417 316.93 669.21 316.31C672.26 313.9 669.75 310.95 666.83 310.83C661.423 310.603 655.963 310.853 650.45 311.58C650.094 311.627 649.733 311.535 649.441 311.323C649.149 311.111 648.949 310.795 648.88 310.44C647.727 304.473 646.04 298.833 643.82 293.52C643.672 293.167 643.669 292.77 643.811 292.416C643.954 292.061 644.23 291.779 644.58 291.63L664.06 283.3C666.287 282.347 666.967 280.733 666.1 278.46C665.947 278.067 665.703 277.713 665.37 277.4C664.223 276.313 662.93 276.097 661.49 276.75C655.55 279.45 649.637 282.183 643.75 284.95C642.797 285.403 641.82 285.58 640.82 285.48C640.48 285.447 640.243 285.273 640.11 284.96C636.483 276.213 631.693 268.243 625.74 261.05C625.675 260.969 625.628 260.875 625.601 260.775C625.574 260.675 625.569 260.571 625.585 260.469C625.601 260.367 625.638 260.27 625.694 260.184C625.75 260.098 625.824 260.025 625.91 259.97C633.097 255.277 639.643 250.59 645.55 245.91C647.003 244.763 647.287 243.373 646.4 241.74L646.21 241.39C645.973 240.958 645.644 240.583 645.246 240.292C644.848 240.001 644.391 239.801 643.907 239.706C643.423 239.612 642.925 239.625 642.446 239.745C641.968 239.865 641.522 240.088 641.14 240.4C635.107 245.353 628.82 250.05 622.28 254.49C622.078 254.628 621.833 254.687 621.59 254.658C621.347 254.628 621.123 254.512 620.96 254.33C610.753 243.183 599.72 233.997 587.86 226.77C587.508 226.555 587.247 226.218 587.127 225.824C587.007 225.429 587.037 225.004 587.21 224.63C589.183 220.377 591.13 215.933 593.05 211.3C593.387 210.48 593.378 209.556 593.024 208.73C592.67 207.904 592 207.242 591.16 206.89C590.067 206.423 588.503 207.74 586.47 210.84C585.683 212.027 584.99 213.267 584.39 214.56L581.55 220.69C581.335 221.157 580.944 221.521 580.462 221.704C579.98 221.888 579.445 221.875 578.97 221.67L571.95 218.65C571.559 218.482 571.246 218.17 571.077 217.778C570.908 217.386 570.895 216.943 571.04 216.54L576.37 201.73C577.017 199.93 576.647 198.373 575.26 197.06C574.92 196.733 574.52 196.547 574.06 196.5C572.467 196.333 571.363 196.993 570.75 198.48L564.67 213.32C564.464 213.821 564.078 214.227 563.587 214.457C563.096 214.687 562.537 214.723 562.02 214.56C552.73 211.58 543.71 208.79 534.21 207.63C533.782 207.577 533.386 207.378 533.09 207.065C532.794 206.753 532.617 206.348 532.59 205.92C532.23 200.82 531.607 196.103 530.72 191.77C530.66 191.485 530.559 191.209 530.42 190.95C529.087 188.55 527.85 187.597 526.71 188.09C524.79 188.923 523.92 190.383 524.1 192.47L525.2 205.06C525.212 205.209 525.191 205.359 525.14 205.5C525.089 205.64 525.007 205.768 524.902 205.875C524.797 205.981 524.67 206.063 524.529 206.116C524.389 206.169 524.239 206.191 524.09 206.18C515.137 205.547 506.363 205.53 497.77 206.13C497.404 206.156 497.04 206.066 496.729 205.872C496.418 205.678 496.177 205.39 496.04 205.05C492.92 197.217 489.333 190.163 485.28 183.89C484.527 182.723 483.463 182.257 482.09 182.49C481.743 182.55 481.43 182.683 481.15 182.89C479.49 184.13 479.137 185.673 480.09 187.52L489.45 205.59C490.003 206.663 489.68 207.283 488.48 207.45L486.22 207.76C485.617 207.845 485.001 207.742 484.457 207.465C483.914 207.188 483.468 206.75 483.18 206.21C476.327 193.403 467.817 182.227 457.65 172.68C454.01 169.26 450.02 166.3 446.35 163.07C446.243 162.975 446.162 162.855 446.114 162.72C446.067 162.586 446.053 162.442 446.076 162.301C446.1 162.161 446.158 162.03 446.246 161.919C446.334 161.809 446.449 161.723 446.58 161.67C448.52 160.877 450.483 160.267 452.47 159.84C464.523 157.253 477.22 155.687 490.56 155.14C522.84 153.833 553.64 159.607 582.96 172.46C611.81 185.1 636.65 204.96 656.61 229.95C679.38 258.47 690.51 294.88 692.6 331.04C693.347 343.92 694.19 356.223 695.13 367.95C695.63 374.15 696.69 380.517 698.31 387.05C701.05 398.1 705.83 407.96 714.5 415.13C715.153 415.663 715.69 416.287 716.11 417C716.22 417.184 716.28 417.394 716.286 417.608C716.292 417.823 716.243 418.035 716.144 418.226C716.045 418.416 715.899 418.578 715.72 418.696C715.54 418.814 715.334 418.884 715.12 418.9C709.047 419.333 703.367 418.523 698.08 416.47C681.693 410.083 669.643 399.273 661.93 384.04C657.56 375.41 654.74 364.33 652.66 354.55C652.637 354.436 652.646 354.317 652.685 354.207C652.725 354.098 652.793 354.001 652.884 353.928C652.974 353.856 653.082 353.81 653.196 353.796C653.31 353.782 653.426 353.801 653.53 353.85C656.95 355.41 658.72 358.01 659.73 361.59C660.797 365.377 662.007 369.183 663.36 373.01C668.753 388.217 678.447 399.593 692.44 407.14C692.76 407.307 693.097 407.4 693.45 407.42C694.583 407.467 695.483 407.933 696.15 408.82C696.343 409.067 696.593 409.183 696.9 409.17C696.993 409.17 697.08 409.137 697.16 409.07C697.2 409.037 697.22 408.993 697.22 408.94C697.16 406.927 696.11 405.65 694.07 405.11C692.177 404.61 690.643 403.84 689.47 402.8C688.517 401.953 687.503 401.24 686.43 400.66C683.29 398.96 680.79 396.16 678.93 392.26C678.743 391.867 678.65 391.45 678.65 391.01C678.65 390.437 678.837 390.363 679.21 390.79C679.677 391.323 680 391.973 680.18 392.74C680.313 393.353 680.567 393.407 680.94 392.9L681.12 392.66C681.34 392.36 681.497 392.39 681.59 392.75C682.15 394.99 683.42 396.657 685.4 397.75C685.707 397.917 685.93 397.837 686.07 397.51L686.33 396.9C686.497 396.507 686.41 396.177 686.07 395.91C685.723 395.65 685.337 395.563 684.91 395.65C684.663 395.703 684.56 395.603 684.6 395.35C684.66 394.943 684.563 394.567 684.31 394.22C683.243 392.747 682.087 391.47 680.84 390.39C680.4 390.01 680.387 389.617 680.8 389.21L681.06 388.95C681.115 388.896 681.183 388.856 681.257 388.833C681.331 388.811 681.409 388.807 681.485 388.822C681.56 388.837 681.63 388.87 681.688 388.919C681.747 388.967 681.792 389.029 681.82 389.1C681.987 389.507 682.28 389.793 682.7 389.96C683.047 390.093 683.323 390.31 683.53 390.61C683.917 391.17 684.197 391.863 684.37 392.69C684.382 392.744 684.411 392.793 684.453 392.828C684.495 392.862 684.547 392.881 684.6 392.88H684.93C685.177 392.88 685.26 392.763 685.18 392.53Z" fill="#fcf2de"/>
<path d="M350.538 188.05L349.079 188.032C348.145 188.02 347.379 188.768 347.368 189.701L347.173 205.7C347.161 206.633 347.908 207.399 348.842 207.41L350.302 207.428C351.235 207.44 352.001 206.692 352.012 205.759L352.208 189.76C352.219 188.827 351.472 188.061 350.538 188.05Z" fill="#fcf2de"/>
<path d="M504.65 213.26C524.24 212.39 544.11 214.55 561.8 222.03C567.707 224.53 574.027 227.607 580.76 231.26C590.173 236.36 598.253 242.247 605 248.92C613.09 256.91 621.91 266.82 627.64 276.45C637.49 292.97 644.05 312.2 645.6 331.43C645.78 333.643 645.82 335.833 645.72 338C645.673 339.12 645.12 339.49 644.06 339.11L642.33 338.49C641.283 338.117 640.723 337.377 640.65 336.27C639.28 315.98 634.56 297.19 623.87 279.61C614.563 264.297 602.29 251.41 587.05 240.95C577.377 234.303 566.917 229.18 555.67 225.58C533.03 218.33 509.76 215.71 486.82 220.68C485.962 220.867 485.073 220.75 484.327 220.354C483.581 219.958 483.033 219.311 482.79 218.54C482.763 218.453 482.73 218.37 482.69 218.29C481.863 216.65 482.347 215.627 484.14 215.22C490.95 213.68 498.46 213.54 504.65 213.26Z" fill="#fcf2de"/>
<path d="M337.71 221.42C337.691 221.421 337.672 221.419 337.653 221.412C337.635 221.406 337.619 221.396 337.605 221.383C337.59 221.37 337.579 221.354 337.572 221.336C337.564 221.318 337.56 221.299 337.56 221.28V221.22C337.511 219.752 338.665 218.303 340.767 217.191C342.869 216.079 345.747 215.396 348.77 215.29L349.23 215.27C350.728 215.218 352.217 215.309 353.61 215.539C355.004 215.769 356.276 216.133 357.353 216.61C358.431 217.087 359.292 217.669 359.889 218.321C360.485 218.973 360.805 219.683 360.83 220.41V220.47C360.831 220.489 360.829 220.509 360.822 220.527C360.816 220.545 360.806 220.561 360.793 220.576C360.78 220.59 360.764 220.601 360.746 220.609C360.728 220.616 360.709 220.62 360.69 220.62L337.71 221.42Z" fill="#fcf2de"/>
<path d="M506.44 230.63C501.613 230.857 495.99 231.407 489.57 232.28C488.05 232.487 487.18 231.833 486.96 230.32C486.947 230.213 486.927 230.08 486.9 229.92C486.68 228.407 487.32 227.49 488.82 227.17C490.34 226.843 491.863 226.6 493.39 226.44C516.68 223.99 541.05 225.47 562.17 235.3C572.78 240.24 584.27 246.36 592.77 253.81C594.783 255.577 598.023 258.73 602.49 263.27C621.04 282.1 631.43 306.08 634.1 333.26C634.227 334.533 633.677 334.98 632.45 334.6L630.18 333.9C629.133 333.573 628.563 332.87 628.47 331.79C625.96 302.29 611.11 273.91 586.85 255.72C581.537 251.733 576.277 248.267 571.07 245.32C564.697 241.713 557.173 238.65 548.5 236.13C533.78 231.85 519.76 230.017 506.44 230.63Z" fill="#fcf2de"/>
<path d="M337.9 228.03L360.64 227.82C360.777 227.819 360.912 227.847 361.037 227.903C361.162 227.958 361.274 228.04 361.365 228.142C361.456 228.244 361.524 228.365 361.564 228.496C361.605 228.626 361.617 228.764 361.6 228.9L360.26 239.7C360.23 239.937 360.113 240.154 359.932 240.309C359.751 240.465 359.518 240.547 359.28 240.54L340.24 239.98C340.028 239.975 339.823 239.899 339.659 239.765C339.494 239.631 339.378 239.447 339.33 239.24L336.97 229.21C336.937 229.069 336.936 228.923 336.967 228.782C336.998 228.641 337.061 228.509 337.15 228.396C337.24 228.282 337.354 228.191 337.483 228.127C337.613 228.064 337.755 228.031 337.9 228.03Z" fill="#fcf2de"/>
<path d="M555.83 251.79C535.837 243.25 515.12 240.867 493.68 244.64C493.282 244.712 492.871 244.669 492.495 244.517C492.12 244.365 491.796 244.109 491.56 243.78C491.173 243.247 490.96 242.68 490.92 242.08C490.853 240.887 491.39 240.11 492.53 239.75C494.923 238.99 497.64 238.51 500.68 238.31C511.84 237.58 522.76 237.45 533.61 239.52C558.823 244.353 579.987 256.05 597.1 274.61C602.833 280.83 608.073 288.837 612.82 298.63C617.74 308.77 620.63 319.307 621.49 330.24C621.577 331.307 621.087 331.773 620.02 331.64L618.49 331.44C617.457 331.307 616.873 330.72 616.74 329.68C613.53 304.69 600.61 281.31 580.37 265.99C572.857 260.303 564.677 255.57 555.83 251.79Z" fill="#fcf2de"/>
<path d="M357.501 254.306L341.522 254.194C340.649 254.188 339.937 254.891 339.931 255.763L339.93 255.863C339.924 256.736 340.626 257.448 341.499 257.454L357.478 257.566C358.351 257.572 359.063 256.869 359.069 255.997L359.07 255.897C359.076 255.024 358.374 254.312 357.501 254.306Z" fill="#fcf2de"/>
<path d="M358.673 263.955L341.233 263.985C340.664 263.986 340.203 264.448 340.204 265.017L340.215 271.357C340.216 271.926 340.678 272.386 341.247 272.385L358.687 272.355C359.256 272.354 359.716 271.892 359.715 271.323L359.704 264.983C359.703 264.414 359.241 263.954 358.673 263.955Z" fill="#fcf2de"/>
<path d="M565.28 280.72C585.59 293.68 599.83 314.87 605.28 338.1C605.547 339.233 605.28 339.38 604.48 338.54C589.827 323.18 572.173 311.367 551.52 303.1C538.967 298.073 527.217 294.45 516.27 292.23C502.163 289.37 487.883 287.763 473.43 287.41C472.797 287.397 472.59 287.09 472.81 286.49C472.937 286.157 473.123 285.857 473.37 285.59C476.83 281.843 481.15 278.787 486.33 276.42C511.85 264.76 541.57 265.59 565.28 280.72Z" fill="#fcf2de"/>
<path d="M343.28 493.41C343.173 493.723 342.993 493.99 342.74 494.21C342.28 494.597 342.04 494.49 342.02 493.89C341.747 484.997 341.587 475.877 341.54 466.53C341.227 404.31 341.147 345.19 341.3 289.17C341.31 284.29 350.44 284.56 353.63 284.94C356.21 285.26 358.75 286.1 358.76 289.25C358.88 342.157 358.77 387.657 358.43 425.75C358.337 436.31 357.793 447.843 356.8 460.35C356.733 461.17 356.627 462.01 356.48 462.87C356.307 463.897 356.26 464.973 356.34 466.1C356.348 466.204 356.318 466.306 356.258 466.389C356.197 466.472 356.109 466.529 356.01 466.55L355.52 466.65C355.233 466.71 355.1 466.597 355.12 466.31C355.23 464.37 357 462.4 354.62 460.92C354.287 460.713 354.3 460.533 354.66 460.38C355.86 459.867 356.147 459.047 355.52 457.92C355.36 457.62 355.34 457.31 355.46 456.99C355.827 455.997 355.96 454.977 355.86 453.93C355.856 453.895 355.845 453.86 355.828 453.829C355.811 453.797 355.788 453.77 355.76 453.747C355.732 453.725 355.7 453.709 355.666 453.699C355.631 453.689 355.595 453.686 355.56 453.69L355.28 453.72C355.221 453.726 355.164 453.744 355.112 453.773C355.06 453.802 355.015 453.84 354.979 453.887C354.942 453.934 354.916 453.987 354.9 454.045C354.885 454.102 354.882 454.161 354.89 454.22C355.15 456.39 354.16 457.91 353.76 459.92C353.12 463.12 352.46 466.38 351.78 469.7C351.327 471.907 350.717 473.86 349.95 475.56C349.137 477.373 348.383 479.187 347.69 481C347.14 482.45 345.71 483.49 346.46 485.15C346.607 485.49 346.607 485.83 346.46 486.17C345.52 488.283 344.67 490.443 343.91 492.65C343.863 492.777 343.78 492.873 343.66 492.94C343.48 493.047 343.353 493.203 343.28 493.41Z" fill="#fcf2de"/>
<path d="M442.91 310.92C445.437 305.393 447.827 300.227 450.08 295.42C450.215 295.138 450.426 294.9 450.689 294.732C450.952 294.564 451.258 294.473 451.57 294.47C465.603 294.337 479.167 294.907 492.26 296.18C536.7 300.52 580.44 318.98 608.31 354.12C610.29 356.62 615.38 363.32 614.41 366.73C613.883 368.57 613.23 370.427 612.45 372.3C612.401 372.414 612.324 372.513 612.225 372.588C612.127 372.663 612.01 372.712 611.888 372.729C611.765 372.746 611.64 372.731 611.525 372.686C611.41 372.64 611.308 372.566 611.23 372.47C601.13 359.897 589.26 349.383 575.62 340.93C553.16 327.023 528.817 318.21 502.59 314.49C482.92 311.7 463.4 312 443.39 311.97C443.269 311.97 443.151 311.93 443.053 311.856C442.956 311.782 442.884 311.678 442.85 311.56C442.797 311.34 442.817 311.127 442.91 310.92Z" fill="#fcf2de"/>
<path d="M522.82 331.9C515.93 331.14 509.19 329.72 502.22 329.68C478.1 329.573 454.833 334.53 432.42 344.55C431.273 345.057 430.11 345.28 428.93 345.22C428.818 345.214 428.709 345.182 428.612 345.125C428.515 345.069 428.433 344.99 428.374 344.895C428.315 344.8 428.28 344.693 428.272 344.582C428.265 344.472 428.284 344.361 428.33 344.26C431.857 336.06 435.22 328.307 438.42 321C438.827 320.073 439.58 319.597 440.68 319.57C458.387 319.137 473.173 319.323 485.04 320.13C493.493 320.71 503.483 322.08 515.01 324.24C518.043 324.807 521.18 325.6 524.42 326.62C540.35 331.63 555.85 337.98 568.21 345.36C578.943 351.773 588.84 359.557 597.9 368.71C601.487 372.33 604.373 376.033 606.56 379.82C607.2 380.92 607.39 382.06 606.99 383.3C603.777 393.167 600.587 402.95 597.42 412.65C596.98 414.01 596.057 414.553 594.65 414.28L592.99 413.96C591.697 413.707 591.277 412.96 591.73 411.72C595.157 402.413 598.157 392.543 600.73 382.11C601.243 380.023 600.573 378.437 598.72 377.35C598.44 377.183 598.137 377.097 597.81 377.09C596.09 377.057 594.993 377.867 594.52 379.52L585.75 410.27C585.55 410.963 585.11 411.193 584.43 410.96C570.363 406.1 555.887 403.133 541 402.06C520.72 400.59 500.1 401.77 480.25 406.18C449.543 413 421.48 425.48 396.06 443.62C395.86 443.767 395.623 443.743 395.35 443.55C395.255 443.484 395.186 443.385 395.157 443.272C395.128 443.158 395.139 443.037 395.19 442.93C402.31 427.803 409.12 412.37 415.62 396.63C416.007 395.677 416.69 395.19 417.67 395.17C430.643 394.83 442.75 393.91 453.99 392.41C468.703 390.45 482.667 386.533 495.88 380.66C507.46 375.52 518.54 368.25 524.77 357.19C527.63 352.117 528.69 345.91 527.95 338.57C527.59 335.09 527.06 332.36 522.82 331.9Z" fill="#fcf2de"/>
<path d="M487.92 425.42C474.107 428.02 460.093 432.463 445.88 438.75C428.527 446.437 412.313 456.087 397.24 467.7C392.073 471.687 387.367 475.953 383.12 480.5C383.05 480.574 382.966 480.632 382.872 480.672C382.778 480.711 382.677 480.731 382.576 480.729C382.474 480.727 382.374 480.704 382.282 480.661C382.189 480.618 382.107 480.556 382.04 480.48C379.807 477.887 377.127 475.7 374 473.92C373.876 473.85 373.768 473.753 373.686 473.636C373.604 473.519 373.549 473.385 373.525 473.245C373.501 473.104 373.509 472.959 373.548 472.822C373.587 472.684 373.656 472.557 373.75 472.45C379.31 466.077 384.937 460.753 390.63 456.48C403.937 446.493 417.757 438.007 432.09 431.02C446.05 424.22 461.427 418.68 478.22 414.4C489.133 411.62 499.73 410.1 510.01 409.84C510.19 409.836 510.369 409.868 510.536 409.934C510.703 410 510.855 410.099 510.984 410.225C511.113 410.35 511.215 410.501 511.284 410.666C511.354 410.832 511.39 411.01 511.39 411.19L511.34 420.89C511.339 421.206 511.222 421.511 511.01 421.747C510.798 421.983 510.506 422.133 510.19 422.17C502.33 423.023 494.907 424.107 487.92 425.42Z" fill="#fcf2de"/>
<path d="M541.33 410.3C563.76 411.16 584.55 417.8 606.18 426.11C613.053 428.743 619.29 431.573 624.89 434.6C641.017 443.32 655.247 453.057 667.58 463.81C670.273 466.157 672.797 468.783 675.15 471.69C675.356 471.946 675.461 472.268 675.444 472.595C675.428 472.922 675.291 473.23 675.06 473.46L667.51 481.08C667.329 481.261 667.084 481.363 666.829 481.365C666.574 481.367 666.33 481.268 666.15 481.09C659.23 474.217 651.517 467.583 643.01 461.19C622.84 446.04 598.81 435.29 574.48 428.74C563.353 425.747 552.14 423.587 540.84 422.26C540.425 422.212 540.045 422.004 539.78 421.679C539.515 421.355 539.386 420.939 539.42 420.52L540.19 411.3C540.25 410.607 540.63 410.273 541.33 410.3Z" fill="#fcf2de"/>
<path d="M525.49 421.56C527.926 421.56 529.9 419.586 529.9 417.15C529.9 414.714 527.926 412.74 525.49 412.74C523.054 412.74 521.08 414.714 521.08 417.15C521.08 419.586 523.054 421.56 525.49 421.56Z" fill="#fcf2de"/>
<path d="M535.13 562.32C526.79 561.1 518.85 561.6 510.71 563.31C510.568 563.34 510.421 563.342 510.277 563.314C510.134 563.287 509.998 563.231 509.876 563.15C509.754 563.069 509.649 562.965 509.567 562.843C509.486 562.721 509.429 562.584 509.4 562.44C508.04 555.433 506.88 548.123 505.92 540.51C501.847 508.03 497.89 476.187 494.05 444.98C493.57 441.067 493.14 437.067 492.76 432.98C492.743 432.804 492.797 432.628 492.909 432.491C493.022 432.354 493.184 432.268 493.36 432.25C498.947 431.65 504.923 430.913 511.29 430.04C512.66 429.85 513.66 430.74 514.24 431.86C516.033 435.307 518.103 437.52 520.45 438.5C523.46 439.76 528.6 439.57 532.03 438.97C534.91 438.47 537.16 434.85 538.51 432.51C539.84 430.21 544.08 430.69 546.44 431.11C550.027 431.763 553.423 432.257 556.63 432.59C556.832 432.611 557.028 432.672 557.206 432.77C557.384 432.869 557.541 433.002 557.666 433.162C557.792 433.323 557.885 433.507 557.939 433.704C557.993 433.901 558.007 434.107 557.98 434.31C552.153 476.877 546.643 519.58 541.45 562.42C541.438 562.521 541.405 562.619 541.355 562.708C541.304 562.797 541.236 562.875 541.155 562.937C541.074 563 540.982 563.045 540.883 563.071C540.784 563.098 540.681 563.104 540.58 563.09C538.773 562.843 536.957 562.587 535.13 562.32Z" fill="#fcf2de"/>
<path d="M392.36 483.03C415.5 460.78 445.68 444.9 477.14 436.05C479.44 435.403 481.817 434.893 484.27 434.52C484.34 434.51 484.411 434.515 484.479 434.533C484.547 434.552 484.611 434.584 484.666 434.628C484.721 434.672 484.767 434.727 484.8 434.789C484.834 434.851 484.854 434.92 484.86 434.99C485.647 444.157 486.72 453.283 488.08 462.37C488.125 462.674 488.053 462.983 487.878 463.236C487.704 463.488 487.44 463.665 487.14 463.73C455.05 470.76 424.63 488.28 403.42 513.93C403.368 513.993 403.304 514.045 403.231 514.082C403.159 514.12 403.079 514.142 402.998 514.147C402.916 514.153 402.835 514.142 402.758 514.115C402.681 514.088 402.61 514.045 402.55 513.99L384.02 496.5C383.924 496.409 383.85 496.297 383.804 496.174C383.757 496.05 383.739 495.918 383.75 495.786C383.762 495.655 383.803 495.527 383.87 495.414C383.938 495.3 384.03 495.203 384.14 495.13L387.31 493C387.7 492.737 388.007 492.369 388.198 491.94C388.389 491.51 388.456 491.036 388.39 490.57C388.23 489.38 388.09 488.28 388.82 487.22C389.853 485.7 391.033 484.303 392.36 483.03Z" fill="#fcf2de"/>
<path d="M565.63 436.28C565.75 435.247 566.32 434.853 567.34 435.1C589.247 440.447 609.57 449.03 628.31 460.85C639.92 468.17 650.72 477.98 661.56 487.26C661.889 487.537 662.109 487.924 662.18 488.35C662.633 491.11 663.933 493.58 666.08 495.76C666.195 495.875 666.285 496.011 666.344 496.162C666.404 496.313 666.433 496.474 666.428 496.636C666.423 496.798 666.386 496.957 666.317 497.104C666.249 497.251 666.151 497.382 666.03 497.49L648.58 513.09C647.96 513.65 647.363 513.623 646.79 513.01C628.603 493.51 607.27 479.103 582.79 469.79C576.76 467.49 569.86 465.69 563.32 463.83C563.08 463.763 562.871 463.612 562.732 463.405C562.593 463.198 562.532 462.948 562.56 462.7L565.63 436.28Z" fill="#fcf2de"/>
<path d="M432.22 497.36C448.25 484.9 467.84 476.07 488.29 470.95C488.413 470.919 488.54 470.915 488.665 470.937C488.789 470.959 488.908 471.007 489.012 471.077C489.117 471.148 489.206 471.24 489.272 471.347C489.339 471.455 489.383 471.575 489.4 471.7C489.867 474.833 490.257 477.777 490.57 480.53C493.917 510.31 497.4 538.407 501.02 564.82C501.07 565.198 501.004 565.581 500.833 565.92C500.662 566.259 500.392 566.538 500.06 566.72C492.88 570.62 486.79 575.24 481.48 581.7C481.388 581.813 481.273 581.907 481.143 581.975C481.014 582.042 480.872 582.083 480.726 582.094C480.58 582.106 480.433 582.087 480.295 582.04C480.156 581.993 480.029 581.918 479.92 581.82L410.13 519.07C410.03 518.978 409.949 518.868 409.891 518.745C409.834 518.621 409.802 518.488 409.796 518.352C409.791 518.217 409.812 518.081 409.859 517.954C409.906 517.826 409.978 517.71 410.07 517.61C416.843 510.33 424.227 503.58 432.22 497.36Z" fill="#fcf2de"/>
<path d="M562.09 471.69C592.03 478.2 619.83 496.01 641.01 518.17C641.108 518.272 641.185 518.393 641.235 518.525C641.285 518.657 641.307 518.799 641.3 518.94C641.294 519.081 641.258 519.22 641.196 519.347C641.135 519.474 641.047 519.588 640.94 519.68C619.847 538.24 598.853 556.85 577.96 575.51C575.773 577.457 573.567 579.66 571.34 582.12C571.25 582.217 571.14 582.294 571.019 582.347C570.897 582.399 570.766 582.426 570.635 582.425C570.503 582.424 570.373 582.396 570.253 582.341C570.134 582.287 570.027 582.208 569.94 582.11C564.18 575.663 557.593 570.59 550.18 566.89C549.847 566.723 549.573 566.457 549.398 566.129C549.222 565.802 549.153 565.428 549.2 565.06L560.95 472.49C560.966 472.361 561.009 472.236 561.077 472.125C561.144 472.013 561.234 471.916 561.342 471.841C561.449 471.766 561.571 471.714 561.699 471.688C561.828 471.662 561.961 471.662 562.09 471.69Z" fill="#fcf2de"/>
<path d="M678.638 483.983C677.336 485.996 677.821 488.624 679.723 489.854C681.624 491.084 684.221 490.45 685.523 488.437C686.824 486.425 686.339 483.796 684.437 482.566C682.536 481.336 679.94 481.971 678.638 483.983Z" fill="#fcf2de"/>
<path d="M367.452 490.168C369.817 490.593 372.046 489.202 372.431 487.06C372.817 484.919 371.212 482.838 368.848 482.412C366.483 481.987 364.254 483.378 363.869 485.52C363.483 487.661 365.088 489.742 367.452 490.168Z" fill="#fcf2de"/>
<path d="M736.65 568.32C729.98 541.68 717.72 517.29 701.71 494.91C701.472 494.587 701.305 494.219 701.22 493.83C700.853 492.163 701.057 491.14 701.83 490.76C703.237 490.08 704.403 490.367 705.33 491.62C726.037 519.607 739.537 550.727 745.83 584.98C746.11 586.527 745.593 587.727 744.28 588.58C743.62 589.013 742.73 588.543 741.61 587.17C741.346 586.84 741.155 586.455 741.05 586.04C739.737 580.68 738.27 574.773 736.65 568.32Z" fill="#fcf2de"/>
<path d="M341.19 544.58C332.763 564.613 327.5 585.607 325.4 607.56C325.392 607.666 325.345 607.765 325.267 607.838C325.189 607.91 325.086 607.95 324.98 607.95L312.42 608.16C312.288 608.162 312.157 608.136 312.035 608.084C311.913 608.032 311.804 607.955 311.715 607.857C311.625 607.76 311.557 607.645 311.515 607.52C311.472 607.394 311.457 607.262 311.47 607.13C315.32 568.38 329 529.71 352.93 499.06C353.05 498.905 353.202 498.778 353.375 498.686C353.548 498.594 353.738 498.539 353.934 498.526C354.129 498.513 354.325 498.541 354.509 498.609C354.693 498.677 354.86 498.783 355 498.92L362.44 506.17C362.759 506.483 362.952 506.903 362.982 507.349C363.011 507.796 362.875 508.237 362.6 508.59C353.573 520.123 346.437 532.12 341.19 544.58Z" fill="#fcf2de"/>
<path d="M723.91 607.44C721.61 572.04 709.26 538.99 688.87 509.98C688.574 509.559 688.441 509.046 688.496 508.536C688.552 508.026 688.791 507.554 689.17 507.21L696.27 500.69C696.623 500.37 696.94 500.4 697.22 500.78C705.9 512.447 713.147 524.78 718.96 537.78C721.087 542.527 723.87 550.07 727.31 560.41C732.51 576.04 735.34 590.81 736.36 607.02C736.37 607.174 736.348 607.329 736.296 607.474C736.244 607.619 736.163 607.752 736.058 607.865C735.953 607.977 735.826 608.067 735.685 608.128C735.545 608.189 735.393 608.22 735.24 608.22L724.77 608.25C724.55 608.25 724.339 608.167 724.179 608.016C724.019 607.865 723.923 607.659 723.91 607.44Z" fill="#fcf2de"/>
<path d="M369.22 730.86C368.52 729.75 367.4 728.89 366.85 727.72C366.617 727.233 366.343 726.777 366.03 726.35C363.39 722.75 360.993 719.02 358.84 715.16C358.35 714.29 357.54 713.7 357.12 712.77C354.7 707.283 352.053 702.93 349.18 699.71C347.573 697.903 346.373 696.033 345.58 694.1C340.49 681.66 336.49 667.65 334.61 653.89C329.09 613.543 334.963 575.537 352.23 539.87C354.75 534.663 357.527 529.727 360.56 525.06C365.08 518.11 369.83 510.7 375.83 505.13C376.78 504.25 377.28 503.27 378.02 502.26C378.064 502.201 378.12 502.151 378.184 502.114C378.248 502.078 378.319 502.055 378.392 502.048C378.466 502.04 378.54 502.048 378.61 502.071C378.68 502.094 378.745 502.131 378.8 502.18L397.8 519.2C398.006 519.386 398.13 519.645 398.147 519.922C398.164 520.198 398.072 520.471 397.89 520.68C387.077 532.993 378.853 546.333 373.22 560.7C365.56 580.24 361.457 600.17 360.91 620.49C360.902 620.777 360.782 621.05 360.576 621.248C360.37 621.447 360.095 621.555 359.81 621.55C357.523 621.503 355.323 621.423 353.21 621.31C347.61 620.99 346.49 629 352.83 629.37C355.103 629.503 357.403 629.537 359.73 629.47C359.984 629.462 360.231 629.554 360.418 629.726C360.605 629.898 360.717 630.136 360.73 630.39C361.017 636.723 361.613 643.273 362.52 650.04C366.43 679.47 378.2 707.74 397.58 730.3C397.757 730.506 397.847 730.772 397.83 731.043C397.813 731.314 397.691 731.568 397.49 731.75L390.78 737.83C390.724 737.881 390.658 737.92 390.587 737.945C390.516 737.97 390.441 737.98 390.366 737.976C390.292 737.971 390.219 737.951 390.152 737.918C390.086 737.884 390.027 737.837 389.98 737.78C381.793 728.06 374.903 717.957 369.31 707.47C367.263 703.63 364.327 697.057 360.5 687.75C360.093 686.763 359.507 686.03 358.74 685.55C356.64 684.22 354.37 686.26 354.51 688.44C354.623 690.14 355.023 691.84 355.71 693.54C362.803 711.04 372.317 727.053 384.25 741.58C384.459 741.834 384.57 742.155 384.562 742.485C384.555 742.815 384.43 743.132 384.21 743.38C382.897 744.86 381.5 746.07 380.02 747.01C378.813 747.777 378.38 747.467 378.72 746.08C378.827 745.647 378.827 745.217 378.72 744.79C378.573 744.23 378.29 743.753 377.87 743.36C376.097 741.713 374.79 739.867 373.95 737.82C373.797 737.453 373.573 737.14 373.28 736.88C372.387 736.1 371.773 735.143 371.44 734.01C371.347 733.683 371.187 733.393 370.96 733.14C370.313 732.427 369.733 731.667 369.22 730.86Z" fill="#fcf2de"/>
<path d="M692.28 712.5C690.193 714.647 688.353 717.093 686.76 719.84C685.967 721.2 685.09 722.48 684.13 723.68C682.78 725.35 681.96 727.19 680.69 728.94C678.68 731.71 676.83 734.44 674.47 736.95C673.15 738.35 671.95 739.83 670.87 741.39C670.517 741.897 670.353 742.427 670.38 742.98C670.387 743.158 670.347 743.335 670.263 743.492C670.179 743.65 670.055 743.781 669.904 743.873C669.752 743.966 669.579 744.015 669.402 744.016C669.225 744.017 669.052 743.97 668.9 743.88L665.95 742.19C665.792 742.099 665.656 741.974 665.552 741.824C665.448 741.675 665.379 741.503 665.349 741.324C665.319 741.144 665.33 740.959 665.38 740.784C665.431 740.609 665.519 740.447 665.64 740.31C668.93 736.51 672.25 732.92 675.05 728.64C678.25 723.74 680.917 719.447 683.05 715.76C695.997 693.427 703.673 668.763 706.08 641.77C706.26 639.757 705.44 638.31 703.62 637.43C703.293 637.263 702.963 637.253 702.63 637.4C700.91 638.147 699.993 639.26 699.88 640.74C699.107 651.193 697.4 660.893 694.76 669.84C692.507 677.48 689.967 684.953 687.14 692.26C681.1 707.853 672.4 722.343 661.04 735.73C660.931 735.858 660.798 735.963 660.649 736.039C660.499 736.114 660.336 736.16 660.169 736.172C660.003 736.184 659.835 736.163 659.677 736.109C659.52 736.056 659.374 735.971 659.25 735.86L653.4 730.74C653.305 730.657 653.228 730.556 653.175 730.442C653.121 730.328 653.091 730.203 653.087 730.077C653.084 729.95 653.106 729.824 653.153 729.706C653.2 729.588 653.27 729.48 653.36 729.39C656.42 726.35 659.333 722.75 662.1 718.59C679.873 691.91 689.2 662.44 690.08 630.18C690.083 630.069 690.11 629.959 690.158 629.858C690.206 629.758 690.275 629.668 690.36 629.596C690.444 629.523 690.543 629.469 690.65 629.437C690.757 629.405 690.869 629.396 690.98 629.41C694.06 629.81 699.33 629.33 700.51 625.76C701.33 623.27 698.87 621.48 696.72 621.28C694.94 621.113 693.083 621.107 691.15 621.26C690.979 621.274 690.807 621.253 690.645 621.199C690.482 621.145 690.332 621.059 690.204 620.946C690.076 620.832 689.973 620.695 689.9 620.541C689.827 620.387 689.786 620.22 689.78 620.05C689.18 605.517 687.047 591.597 683.38 578.29C677.653 557.497 667.757 538.373 653.69 520.92C653.391 520.548 653.248 520.075 653.289 519.599C653.329 519.122 653.552 518.679 653.91 518.36L671.65 502.67C671.73 502.6 671.823 502.547 671.923 502.513C672.024 502.48 672.13 502.466 672.235 502.474C672.34 502.481 672.442 502.509 672.536 502.557C672.629 502.604 672.712 502.67 672.78 502.75C678.907 509.883 684.837 517.887 690.57 526.76C697.76 537.88 702.23 549.49 706.65 561.79C714.93 584.84 717.59 610.51 716.27 635.29C715.18 655.81 710.16 675.61 702.27 694.73C701.017 697.77 699.767 700.703 698.52 703.53C697.3 706.283 695.727 708.867 693.8 711.28C693.58 711.553 693.32 711.77 693.02 711.93C692.747 712.083 692.5 712.273 692.28 712.5Z" fill="#fcf2de"/>
<path d="M475.59 589.61C470.1 598.93 467.87 609.7 468.01 620.94C468.017 621.307 467.833 621.49 467.46 621.49L369.53 621.48C369.393 621.48 369.258 621.453 369.133 621.4C369.007 621.346 368.893 621.269 368.798 621.171C368.703 621.073 368.628 620.957 368.579 620.83C368.529 620.702 368.506 620.566 368.51 620.43C368.903 607.263 370.967 594.08 374.7 580.88C376.91 573.06 378.97 566.37 382.57 558.65C388.35 546.263 395.29 535.233 403.39 525.56C403.99 524.84 404.633 524.797 405.32 525.43C410.27 530 415.26 534.81 420.34 539.22C438.96 555.373 457.283 571.573 475.31 587.82C475.556 588.04 475.719 588.339 475.77 588.665C475.821 588.991 475.757 589.325 475.59 589.61Z" fill="#fcf2de"/>
<path d="M648.23 526.03C663.06 545.11 674.08 567.98 678.7 591.42C680.493 600.533 681.637 610.337 682.13 620.83C682.157 621.27 681.95 621.49 681.51 621.49H583.53C583.328 621.49 583.135 621.41 582.993 621.267C582.85 621.125 582.77 620.932 582.77 620.73C582.783 609.483 580.42 599.553 575.68 590.94C574.96 589.633 575.203 588.457 576.41 587.41C581.257 583.21 586.003 579.037 590.65 574.89C611.543 556.25 629.653 539.933 644.98 525.94C646.22 524.813 647.303 524.843 648.23 526.03Z" fill="#fcf2de"/>
<path d="M574.21 617.78C574.21 630.731 569.065 643.151 559.908 652.308C550.751 661.465 538.331 666.61 525.38 666.61C512.43 666.61 500.009 661.465 490.852 652.308C481.695 643.151 476.55 630.731 476.55 617.78C476.55 604.83 481.695 592.409 490.852 583.252C500.009 574.095 512.43 568.95 525.38 568.95C538.331 568.95 550.751 574.095 559.908 583.252C569.065 592.409 574.21 604.83 574.21 617.78ZM529.265 663.517C534.648 663.027 539.879 661.458 544.661 658.898C549.442 656.339 553.68 652.841 557.132 648.602C560.584 644.363 563.183 639.467 564.78 634.194C566.377 628.921 566.942 623.374 566.441 617.87C565.94 612.365 564.383 607.011 561.861 602.113C559.338 597.215 555.898 592.869 551.737 589.323C547.577 585.777 542.777 583.1 537.612 581.446C532.447 579.792 527.018 579.193 521.635 579.683C516.252 580.173 511.021 581.742 506.239 584.302C501.458 586.861 497.22 590.359 493.768 594.598C490.316 598.837 487.717 603.733 486.12 609.006C484.523 614.279 483.959 619.826 484.459 625.33C484.96 630.835 486.517 636.189 489.039 641.087C491.562 645.985 495.002 650.332 499.163 653.877C503.323 657.423 508.123 660.1 513.288 661.754C518.453 663.408 523.882 664.007 529.265 663.517Z" fill="#fcf2de"/>
<path d="M493.47 620.06C493.436 620.06 493.402 620.053 493.37 620.04C493.339 620.027 493.31 620.008 493.286 619.984C493.262 619.96 493.243 619.931 493.23 619.899C493.217 619.868 493.21 619.834 493.21 619.8V619.67C493.226 611.106 496.607 602.9 502.611 596.855C508.614 590.811 516.746 587.424 525.22 587.44H526.08C530.276 587.448 534.429 588.291 538.302 589.921C542.176 591.551 545.693 593.936 548.655 596.94C551.616 599.944 553.963 603.508 555.561 607.428C557.159 611.349 557.978 615.55 557.97 619.79V619.92C557.97 619.989 557.943 620.055 557.894 620.104C557.845 620.153 557.779 620.18 557.71 620.18L493.47 620.06Z" fill="#fcf2de"/>
<path d="M317.84 625.709C320.43 625.533 322.39 623.353 322.219 620.84C322.048 618.328 319.81 616.434 317.22 616.611C314.63 616.787 312.67 618.967 312.841 621.48C313.012 623.992 315.25 625.886 317.84 625.709Z" fill="#fcf2de"/>
<path d="M731.41 625.39C733.796 625.39 735.73 623.456 735.73 621.07C735.73 618.684 733.796 616.75 731.41 616.75C729.024 616.75 727.09 618.684 727.09 621.07C727.09 623.456 729.024 625.39 731.41 625.39Z" fill="#fcf2de"/>
<path d="M500.78 622.59C501.147 622.877 501.103 623.077 500.65 623.19C500.183 623.303 499.76 623.2 499.38 622.88C499.338 622.843 499.307 622.797 499.289 622.744C499.271 622.692 499.267 622.636 499.277 622.582C499.287 622.527 499.311 622.476 499.347 622.434C499.382 622.392 499.428 622.359 499.48 622.34C499.927 622.18 500.36 622.263 500.78 622.59Z" fill="#fcf2de"/>
<path d="M530.01 622.72C531.357 622.493 532.62 622.477 533.8 622.67C533.94 622.69 534 622.767 533.98 622.9C533.98 622.933 533.97 622.963 533.95 622.99C533.923 623.017 533.893 623.03 533.86 623.03C523.92 623.05 513.7 623.15 503.2 623.33C502.84 623.33 502.597 623.167 502.47 622.84C502.23 622.213 502.413 622.043 503.02 622.33C503.973 622.777 504.82 622.87 505.56 622.61C505.84 622.51 506.127 622.46 506.42 622.46L510.29 622.51C510.583 622.51 510.853 622.59 511.1 622.75C511.42 622.957 511.717 622.917 511.99 622.63C512.135 622.481 512.323 622.382 512.528 622.346C512.732 622.31 512.943 622.34 513.13 622.43C514.32 623 515.39 622.5 516.67 622.54C520.997 622.693 524.773 622.697 528 622.55C528.353 622.53 528.703 622.567 529.05 622.66C529.363 622.753 529.683 622.773 530.01 622.72Z" fill="#fcf2de"/>
<path d="M541.03 622.94C540.988 622.867 540.968 622.782 540.972 622.698C540.977 622.613 541.006 622.532 541.055 622.463C541.105 622.395 541.173 622.342 541.252 622.311C541.331 622.28 541.417 622.273 541.5 622.29C541.88 622.383 542.2 622.6 542.46 622.94C542.74 623.293 542.657 623.487 542.21 623.52C541.683 623.553 541.29 623.36 541.03 622.94Z" fill="#fcf2de"/>
<path d="M543.97 623.1C543.79 622.893 543.79 622.683 543.97 622.47C544.143 622.277 544.36 622.207 544.62 622.26C544.807 622.3 544.927 622.41 544.98 622.59C545.013 622.697 545.04 622.803 545.06 622.91C545.153 623.363 544.973 623.54 544.52 623.44C544.3 623.387 544.117 623.273 543.97 623.1Z" fill="#fcf2de"/>
<path d="M469.69 630.66C471.06 638.85 474.76 647.01 479.71 653.85C479.88 654.088 479.958 654.379 479.929 654.67C479.899 654.961 479.765 655.231 479.55 655.43L403.6 725.64C403.57 725.668 403.534 725.69 403.495 725.704C403.456 725.718 403.415 725.724 403.373 725.721C403.332 725.719 403.292 725.707 403.255 725.688C403.218 725.669 403.186 725.642 403.16 725.61C395.4 715.81 388.61 706.18 383.38 694.66C374.287 674.64 369.33 653.16 368.51 630.22C368.507 630.128 368.523 630.036 368.557 629.95C368.59 629.864 368.641 629.785 368.705 629.719C368.769 629.653 368.846 629.6 368.931 629.564C369.016 629.528 369.108 629.51 369.2 629.51L468.3 629.49C468.632 629.49 468.954 629.607 469.209 629.821C469.463 630.035 469.633 630.332 469.69 630.66Z" fill="#fcf2de"/>
<path d="M682.29 630.29C681.45 665.22 669.45 697.63 647.81 725.33C647.771 725.38 647.722 725.421 647.666 725.451C647.61 725.481 647.548 725.498 647.484 725.503C647.42 725.508 647.356 725.499 647.295 725.478C647.234 725.457 647.178 725.424 647.13 725.38L571.53 655.24C571.348 655.068 571.233 654.839 571.203 654.592C571.174 654.345 571.233 654.096 571.37 653.89C576.05 646.9 580.1 638.59 581.08 630.27C581.105 630.059 581.205 629.864 581.364 629.722C581.522 629.58 581.727 629.501 581.94 629.5L681.51 629.49C681.614 629.49 681.717 629.511 681.813 629.551C681.909 629.592 681.996 629.651 682.069 629.725C682.141 629.8 682.199 629.888 682.237 629.985C682.275 630.082 682.293 630.186 682.29 630.29Z" fill="#fcf2de"/>
<path d="M727.08 722.56C725.327 726.473 724.1 729.1 723.4 730.44C722.727 731.727 721.403 732.46 719.43 732.64C719.09 732.667 718.807 732.563 718.58 732.33C717.553 731.243 717.377 730.033 718.05 728.7C728.56 707.82 736.08 684.99 739.88 662.93C741.273 654.823 742.263 645.773 742.85 635.78C742.937 634.3 743.71 633.673 745.17 633.9L745.45 633.94C747.043 634.187 747.8 635.117 747.72 636.73C746.273 666.47 739.393 695.08 727.08 722.56Z" fill="#fcf2de"/>
<path d="M718.21 712.49C712.49 726.03 705.4 738.39 696.94 749.57C696.88 749.649 696.803 749.713 696.714 749.757C696.625 749.8 696.526 749.823 696.426 749.822C696.327 749.821 696.228 749.797 696.138 749.751C696.049 749.706 695.971 749.64 695.91 749.56C693.89 746.813 691.407 744.423 688.46 742.39C688.322 742.294 688.204 742.173 688.113 742.032C688.022 741.891 687.96 741.733 687.93 741.569C687.9 741.404 687.904 741.236 687.94 741.073C687.976 740.91 688.044 740.756 688.14 740.62C708.01 712.44 719.2 679.95 722.93 645.68C722.957 645.427 723.075 645.193 723.263 645.021C723.451 644.85 723.696 644.753 723.95 644.75C725.923 644.717 727.877 644.753 729.81 644.86C734.04 645.1 734.57 652.4 734.21 655.3C731.74 674.97 725.97 694.11 718.21 712.49Z" fill="#fcf2de"/>
<path d="M326.08 647.25C327.02 657.397 329.047 668.327 332.16 680.04C338.14 702.58 349.47 722.54 362.45 741.78C362.598 741.998 362.666 742.259 362.644 742.521C362.623 742.783 362.512 743.03 362.33 743.22L355.1 750.64C354.513 751.24 353.953 751.217 353.42 750.57C330.69 722.79 316.9 687.61 312.84 652.07C312.693 650.79 312.7 649.43 312.86 647.99C312.89 647.699 313.023 647.428 313.236 647.225C313.448 647.022 313.726 646.899 314.02 646.88L324.86 646.2C325.6 646.153 326.007 646.503 326.08 647.25Z" fill="#fcf2de"/>
<path d="M471.83 773.37C448.07 764.78 426.8 751.25 409.7 732.94C409.06 732.253 409.087 731.597 409.78 730.97C429.793 712.77 452.66 691.477 478.38 667.09C480.173 665.397 482.27 663.507 484.67 661.42C484.863 661.253 485.112 661.166 485.365 661.177C485.618 661.189 485.856 661.297 486.03 661.48C490.377 665.92 495.073 669.567 500.12 672.42C501.3 673.08 501.01 674.62 500.88 675.73C499.18 690.37 497.2 704.95 495.73 719.71C493.837 738.817 491.623 758.5 489.09 778.76C489.079 778.843 489.051 778.922 489.006 778.992C488.961 779.063 488.902 779.122 488.832 779.166C488.762 779.21 488.683 779.238 488.601 779.247C488.52 779.257 488.437 779.247 488.36 779.22C482.833 777.3 477.323 775.35 471.83 773.37Z" fill="#fcf2de"/>
<path d="M590.87 767.66C581.117 771.927 571.343 775.587 561.55 778.64C561.475 778.664 561.395 778.671 561.317 778.661C561.239 778.651 561.164 778.623 561.098 778.58C561.032 778.536 560.976 778.479 560.935 778.412C560.894 778.344 560.868 778.269 560.86 778.19L549.29 674.5C549.241 674.05 549.346 673.596 549.587 673.212C549.828 672.827 550.192 672.534 550.62 672.38C556.09 670.42 561.37 665.82 565.38 661.74C565.74 661.373 566.11 661.367 566.49 661.72L641.06 730.13C641.175 730.236 641.268 730.365 641.332 730.508C641.397 730.65 641.432 730.805 641.436 730.962C641.439 731.118 641.412 731.274 641.354 731.42C641.296 731.566 641.21 731.698 641.1 731.81C626.36 746.54 609.81 759.37 590.87 767.66Z" fill="#fcf2de"/>
<path d="M502.18 803.61C501.113 803.783 500.34 804.197 499.86 804.85C499.633 805.157 499.34 805.257 498.98 805.15C498.853 805.11 498.73 805.097 498.61 805.11C498.483 805.127 498.367 805.189 498.284 805.283C498.201 805.377 498.157 805.497 498.16 805.62C498.18 806.607 497.713 807.26 496.76 807.58C496.407 807.7 496.187 807.94 496.1 808.3C495.96 808.847 495.703 809.337 495.33 809.77C494.483 810.743 494.077 810.583 494.11 809.29C494.283 803.33 494.797 797.037 495.65 790.41C497.49 776.157 499.657 757.323 502.15 733.91C504.13 715.3 506.67 696.86 508.72 677.96C508.732 677.854 508.766 677.752 508.818 677.659C508.869 677.566 508.939 677.484 509.023 677.418C509.106 677.352 509.202 677.304 509.305 677.275C509.407 677.246 509.514 677.237 509.62 677.25C510.793 677.39 511.943 677.567 513.07 677.78C522.53 679.547 531.733 679.463 540.68 677.53C540.783 677.507 540.889 677.506 540.993 677.528C541.096 677.549 541.194 677.593 541.28 677.655C541.366 677.717 541.438 677.797 541.491 677.889C541.545 677.981 541.578 678.084 541.59 678.19C543.39 695.43 545.363 712.753 547.51 730.16C550.33 753.14 552.55 776.71 554.9 798.5C555.21 801.42 555.12 804.21 555.43 807.08C555.483 807.533 555.297 807.837 554.87 807.99L552.88 808.71C552.187 808.957 551.99 808.743 552.29 808.07C552.43 807.75 552.663 807.537 552.99 807.43C553.149 807.376 553.288 807.276 553.39 807.142C553.492 807.009 553.551 806.848 553.56 806.68C553.573 806.413 553.463 806.203 553.23 806.05C553.09 805.957 552.937 805.913 552.77 805.92C551.883 805.98 551.41 806.403 551.35 807.19C551.323 807.463 551.177 807.61 550.91 807.63C549.71 807.723 548.9 808.303 548.48 809.37C548.44 809.466 548.369 809.545 548.278 809.594C548.187 809.643 548.082 809.659 547.98 809.64L547.66 809.58C547.293 809.513 547.197 809.317 547.37 808.99C547.57 808.597 547.863 808.277 548.25 808.03C548.51 807.87 548.613 807.64 548.56 807.34C548.48 806.867 548.213 806.533 547.76 806.34C547.407 806.193 547.193 806.307 547.12 806.68L546.99 807.35C546.923 807.683 546.727 807.893 546.4 807.98C546.053 808.067 545.697 808.043 545.33 807.91C543.92 807.4 543.8 805.99 541.74 805.6C541.4 805.54 541.077 805.577 540.77 805.71C539.743 806.157 538.77 806.02 537.85 805.3C537.643 805.133 537.407 805.073 537.14 805.12C536.673 805.193 536.42 805.467 536.38 805.94C536.36 806.133 536.41 806.31 536.53 806.47C537.437 807.677 538.577 808.507 539.95 808.96C540.263 809.06 540.497 809.253 540.65 809.54L540.88 809.96C541.06 810.287 541.333 810.483 541.7 810.55C542.153 810.63 542.51 810.877 542.77 811.29C542.997 811.657 542.927 811.723 542.56 811.49L532.08 804.77C531.587 804.457 531.217 804.563 530.97 805.09L530.75 805.55C530.713 805.627 530.693 805.711 530.689 805.797C530.685 805.882 530.699 805.967 530.728 806.048C530.758 806.128 530.804 806.201 530.863 806.263C530.921 806.326 530.992 806.375 531.07 806.41C531.75 806.71 532.333 807.11 532.82 807.61C532.893 807.69 532.893 807.77 532.82 807.85L532.64 808.03C532.573 808.103 532.5 808.11 532.42 808.05C530.58 806.557 528.47 805.677 526.09 805.41C525.717 805.37 525.357 805.443 525.01 805.63C523.98 806.17 522.53 806 521.67 805.24C521.545 805.13 521.396 805.051 521.234 805.01C521.073 804.968 520.904 804.965 520.741 805.001C520.579 805.037 520.427 805.111 520.298 805.217C520.169 805.323 520.067 805.457 520 805.61C519.833 805.99 519.573 806.25 519.22 806.39C519.142 806.421 519.059 806.435 518.975 806.43C518.891 806.426 518.81 806.403 518.736 806.364C518.662 806.326 518.597 806.271 518.546 806.205C518.495 806.138 518.459 806.062 518.44 805.98C518.28 805.307 517.873 805.023 517.22 805.13C516.929 805.182 516.661 805.329 516.46 805.55C515.9 806.177 515.197 806.557 514.35 806.69C513.957 806.75 513.803 806.587 513.89 806.2C513.917 806.067 513.98 805.963 514.08 805.89C514.333 805.697 514.51 805.45 514.61 805.15C514.717 804.85 514.627 804.6 514.34 804.4C514.266 804.347 514.18 804.314 514.091 804.301C514.003 804.289 513.913 804.299 513.83 804.33L512.81 804.68C512.523 804.78 512.27 804.72 512.05 804.5C511.437 803.88 510.717 803.77 509.89 804.17C509.543 804.337 509.427 804.607 509.54 804.98L509.82 805.86C509.92 806.187 509.877 806.497 509.69 806.79C509.623 806.897 509.53 806.95 509.41 806.95C509.143 806.943 509.043 806.813 509.11 806.56C509.203 806.16 509.14 805.787 508.92 805.44C508.68 805.067 508.383 805.013 508.03 805.28C507.903 805.373 507.763 805.417 507.61 805.41C507.49 805.403 507.4 805.343 507.34 805.23L506.81 804.21C506.643 803.89 506.383 803.773 506.03 803.86C504.157 804.327 502.737 805.28 501.77 806.72C501.583 807 501.333 807.203 501.02 807.33C499.393 808.003 498.257 809.213 497.61 810.96C497.423 811.46 497.07 811.61 496.55 811.41C496.418 811.363 496.301 811.279 496.214 811.169C496.126 811.059 496.072 810.927 496.056 810.787C496.041 810.647 496.065 810.506 496.125 810.379C496.186 810.252 496.281 810.145 496.4 810.07C497.147 809.583 497.643 808.943 497.89 808.15C497.983 807.85 498.15 807.6 498.39 807.4L502.37 804.03C502.81 803.663 502.747 803.523 502.18 803.61Z" fill="#fcf2de"/>
<path d="M260.91 697.06C260.917 697.213 260.867 697.343 260.76 697.45C260.433 697.803 260.227 697.743 260.14 697.27C260.033 696.717 260.19 696.223 260.61 695.79C261.017 695.357 261.153 695.43 261.02 696.01C260.947 696.35 260.91 696.7 260.91 697.06Z" fill="#fcf2de"/>
<path d="M214.44 696.11C214.853 696.123 215.2 696.263 215.48 696.53C215.813 696.843 215.757 697.043 215.31 697.13C214.777 697.23 214.247 697.15 213.72 696.89C213.413 696.743 213.27 696.493 213.29 696.14C213.295 696.071 213.317 696.004 213.354 695.946C213.391 695.888 213.443 695.84 213.504 695.807C213.565 695.774 213.633 695.757 213.702 695.757C213.772 695.758 213.84 695.776 213.9 695.81C213.987 695.857 214.063 695.913 214.13 695.98C214.214 696.063 214.325 696.11 214.44 696.11Z" fill="#fcf2de"/>
<path d="M216.52 698.1C216.813 698.033 217.09 698.047 217.35 698.14C217.51 698.2 217.597 698.32 217.61 698.5C217.63 698.76 217.49 698.96 217.19 699.1C217.117 699.133 217.039 699.153 216.96 699.16C216.427 699.2 216.043 699 215.81 698.56C215.697 698.34 215.763 698.2 216.01 698.14C216.11 698.12 216.21 698.113 216.31 698.12C216.383 698.12 216.453 698.113 216.52 698.1Z" fill="#fcf2de"/>
<path d="M218.95 699.58C218.99 699.515 219.046 699.463 219.114 699.428C219.182 699.394 219.258 699.379 219.333 699.385C219.409 699.391 219.482 699.418 219.543 699.463C219.604 699.508 219.652 699.57 219.68 699.64C219.94 700.273 219.8 700.7 219.26 700.92C219.214 700.939 219.165 700.947 219.116 700.945C219.066 700.942 219.018 700.929 218.974 700.907C218.931 700.884 218.892 700.852 218.862 700.812C218.832 700.773 218.811 700.728 218.8 700.68C218.7 700.253 218.75 699.887 218.95 699.58Z" fill="#fcf2de"/>
<path d="M254.77 710.93C273.98 712.91 292.7 721.82 306.44 735.4C306.556 735.516 306.647 735.655 306.708 735.807C306.768 735.96 306.796 736.123 306.791 736.286C306.785 736.45 306.746 736.61 306.675 736.757C306.604 736.904 306.504 737.034 306.38 737.14L298.08 744.3C297.893 744.461 297.65 744.542 297.404 744.527C297.157 744.512 296.927 744.402 296.76 744.22C285.44 731.907 271.487 724.293 254.9 721.38C231.02 717.19 204.2 725.44 188.2 743.93C187.923 744.247 187.535 744.446 187.115 744.483C186.696 744.52 186.278 744.394 185.95 744.13L177.21 737.16C177.128 737.095 177.061 737.013 177.014 736.919C176.967 736.826 176.941 736.723 176.937 736.618C176.933 736.512 176.952 736.407 176.992 736.309C177.032 736.211 177.093 736.123 177.17 736.05C186.77 727.13 197.413 720.493 209.1 716.14C223.16 710.9 239.91 709.4 254.77 710.93Z" fill="#fcf2de"/>
<path d="M270.68 740.58C262.747 736.46 254.65 734.143 246.39 733.63C227.823 732.47 212.42 738.19 200.18 750.79C198.733 752.277 197.063 752.597 195.17 751.75L194.53 751.46C192.683 750.633 192.467 749.497 193.88 748.05C208.787 732.763 227.05 726.017 248.67 727.81C264.19 729.097 278.08 735.723 290.34 747.69C291.54 748.87 291.483 749.987 290.17 751.04L289.61 751.49C287.97 752.81 286.39 752.747 284.87 751.3C279.73 746.4 275 742.827 270.68 740.58Z" fill="#fcf2de"/>
<path d="M583.7 778.95C600.413 772.657 615.603 763.983 629.27 752.93C635.34 748.03 641.06 741.9 647.12 736.4C647.251 736.281 647.422 736.217 647.599 736.22C647.776 736.224 647.944 736.296 648.07 736.42L653.47 741.71C653.693 741.927 653.832 742.216 653.861 742.526C653.89 742.835 653.808 743.145 653.63 743.4C653.063 744.207 652.443 744.95 651.77 745.63C637.743 759.77 623.15 770.86 607.99 778.9C595.437 785.553 580.723 791.26 563.85 796.02C563.097 796.233 562.69 795.95 562.63 795.17L561.97 787.23C561.91 786.537 562.217 786.097 562.89 785.91C568.843 784.25 575.78 781.93 583.7 778.95Z" fill="#fcf2de"/>
<path d="M485.6 796.41C459.78 789.39 433.48 777.23 412.97 760.12C407.363 755.453 401.66 750.19 395.86 744.33C395.797 744.265 395.748 744.187 395.715 744.103C395.683 744.018 395.668 743.927 395.672 743.836C395.676 743.746 395.698 743.657 395.737 743.575C395.776 743.493 395.832 743.42 395.9 743.36L402.29 737.86C402.453 737.722 402.661 737.651 402.873 737.66C403.084 737.669 403.283 737.759 403.43 737.91C421.817 756.937 443.093 770.917 467.26 779.85C473.967 782.323 480.54 784.483 486.98 786.33C487.267 786.411 487.515 786.593 487.68 786.842C487.845 787.091 487.916 787.392 487.88 787.69L486.91 795.53C486.81 796.323 486.373 796.617 485.6 796.41Z" fill="#fcf2de"/>
<path d="M252.97 752.46C244.39 752.05 237.06 751.86 229.29 753.78C229.131 753.819 228.963 753.794 228.822 753.71C228.682 753.625 228.58 753.489 228.54 753.33C228.44 752.93 228.51 752.563 228.75 752.23C230.25 750.137 232.493 748.88 235.48 748.46C240.89 747.7 249.42 747.35 253.57 750.96C254.81 752.04 254.61 752.54 252.97 752.46Z" fill="#fcf2de"/>
<path d="M645.8 768.03C645.5 769.103 644.767 769.63 643.6 769.61C643.213 769.603 642.877 769.73 642.59 769.99L638.58 773.49C638.347 773.697 638.08 773.767 637.78 773.7C636.573 773.427 635.583 773.697 634.81 774.51C634.583 774.75 634.443 775.037 634.39 775.37C634.31 775.923 634.143 776.433 633.89 776.9C633.743 777.187 633.51 777.353 633.19 777.4C632.403 777.513 631.68 777.837 631.02 778.37C630.693 778.63 630.323 778.723 629.91 778.65C629.37 778.543 629.047 778.757 628.94 779.29C628.906 779.473 628.829 779.646 628.716 779.795C628.604 779.944 628.458 780.066 628.29 780.15C627.477 780.557 627.18 781.19 627.4 782.05C627.437 782.194 627.426 782.346 627.368 782.482C627.31 782.618 627.209 782.73 627.08 782.8L622.85 785.11C622.483 785.303 622.173 785.24 621.92 784.92C621.8 784.773 621.73 784.607 621.71 784.42C621.698 784.336 621.669 784.255 621.625 784.183C621.582 784.11 621.524 784.047 621.456 783.998C621.387 783.948 621.31 783.913 621.228 783.895C621.147 783.876 621.062 783.875 620.98 783.89C620.527 783.97 620.093 784.167 619.68 784.48C619.48 784.64 619.35 784.847 619.29 785.1C619.123 785.893 618.643 786.313 617.85 786.36C617.603 786.373 617.393 786.467 617.22 786.64C616.373 787.46 615.337 787.943 614.11 788.09C613.837 788.122 613.579 788.237 613.37 788.42C613.157 788.6 612.983 788.813 612.85 789.06C612.63 789.46 612.29 789.673 611.83 789.7L610.29 789.78C610.19 789.786 610.092 789.812 610.004 789.858C609.915 789.904 609.836 789.967 609.774 790.045C609.712 790.122 609.667 790.212 609.642 790.307C609.617 790.403 609.613 790.503 609.63 790.6C609.67 790.827 609.753 791.03 609.88 791.21C610.06 791.47 610.09 791.747 609.97 792.04C609.717 792.66 609.27 793.163 608.63 793.55C608.27 793.763 608.087 793.663 608.08 793.25C608.067 792.397 608.297 791.613 608.77 790.9C609.043 790.5 608.937 790.327 608.45 790.38C607.57 790.49 606.96 791.2 607 792.1C607.033 792.707 607.04 793.31 607.02 793.91C607 794.37 606.77 794.537 606.33 794.41C605.663 794.223 605.38 793.733 605.48 792.94C605.5 792.781 605.455 792.621 605.356 792.494C605.257 792.367 605.111 792.283 604.95 792.26C604.43 792.187 603.947 792.287 603.5 792.56C603.153 792.773 603.1 793.043 603.34 793.37C603.713 793.863 603.89 794.393 603.87 794.96C603.867 795.135 603.811 795.304 603.711 795.446C603.61 795.589 603.469 795.698 603.305 795.76C603.141 795.822 602.962 795.834 602.79 795.795C602.618 795.756 602.462 795.667 602.34 795.54C601.753 794.913 601.237 794.953 600.79 795.66C600.497 796.113 600.083 796.383 599.55 796.47L595.97 797.03C595.772 797.061 595.584 797.138 595.421 797.256C595.258 797.373 595.125 797.527 595.032 797.705C594.94 797.883 594.891 798.08 594.888 798.281C594.886 798.482 594.931 798.68 595.02 798.86C595.227 799.293 595.367 799.753 595.44 800.24C595.5 800.64 595.383 800.7 595.09 800.42C594.443 799.8 594.067 799.047 593.96 798.16C593.937 797.978 593.851 797.81 593.717 797.685C593.584 797.561 593.411 797.488 593.23 797.48C592.703 797.453 592.22 797.627 591.78 798C591.513 798.227 591.527 798.433 591.82 798.62L592.58 799.12C592.927 799.353 592.947 799.613 592.64 799.9C591.707 800.78 590.837 800.74 590.03 799.78C589.956 799.689 589.857 799.622 589.745 799.587C589.634 799.552 589.514 799.55 589.401 799.582C589.289 799.614 589.188 799.678 589.111 799.766C589.035 799.855 588.985 799.964 588.97 800.08C588.877 800.747 588.6 801.283 588.14 801.69C588.029 801.785 587.896 801.852 587.753 801.886C587.611 801.919 587.462 801.917 587.32 801.88C585.713 801.44 584.26 801.47 582.96 801.97C581.447 802.543 580 803.04 578.62 803.46C578.502 803.498 578.396 803.566 578.313 803.659C578.231 803.752 578.175 803.865 578.152 803.987C578.128 804.109 578.138 804.234 578.18 804.351C578.222 804.468 578.294 804.571 578.39 804.65L579.21 805.33C579.65 805.69 579.583 805.873 579.01 805.88H578.56C578.455 805.88 578.353 805.851 578.264 805.796C578.176 805.741 578.105 805.663 578.06 805.57C577.427 804.283 576.367 803.99 574.88 804.69C574.487 804.87 574.367 805.163 574.52 805.57C574.567 805.71 574.647 805.827 574.76 805.92C574.987 806.1 575.01 806.303 574.83 806.53L573.05 808.74C572.963 808.84 572.857 808.887 572.73 808.88C572.623 808.867 572.54 808.823 572.48 808.75C572.42 808.683 572.4 808.603 572.42 808.51C572.68 807.47 573.17 806.547 573.89 805.74C574.29 805.293 574.197 805.01 573.61 804.89C573.33 804.837 573.04 804.837 572.74 804.89C572.32 804.977 572.033 805.22 571.88 805.62C571.827 805.747 571.73 805.83 571.59 805.87C571.343 805.943 571.133 805.887 570.96 805.7C570.773 805.513 570.537 805.497 570.25 805.65C570.169 805.697 570.104 805.767 570.062 805.852C570.019 805.937 570.001 806.034 570.01 806.13C570.07 806.67 570.013 807.193 569.84 807.7C569.713 808.073 569.457 808.243 569.07 808.21L567.56 808.11C567.454 808.102 567.349 808.133 567.264 808.195C567.18 808.258 567.121 808.348 567.1 808.45C567.047 808.663 566.937 808.787 566.77 808.82C566.223 808.933 565.977 808.713 566.03 808.16C566.15 806.787 565.677 805.713 564.61 804.94C564.427 804.811 564.286 804.632 564.201 804.425C564.117 804.217 564.094 803.99 564.135 803.77C564.176 803.55 564.28 803.346 564.433 803.183C564.586 803.02 564.783 802.905 565 802.85C571.22 801.223 577.54 799.283 583.96 797.03C612.827 786.897 637.6 770.763 658.28 748.63C658.46 748.437 658.679 748.285 658.923 748.184C659.167 748.083 659.429 748.036 659.693 748.045C659.957 748.054 660.215 748.121 660.451 748.239C660.687 748.357 660.895 748.524 661.06 748.73C661.953 749.83 662.817 750.997 663.65 752.23C663.726 752.341 663.772 752.471 663.782 752.606C663.793 752.74 663.767 752.874 663.709 752.994C663.65 753.114 663.561 753.215 663.451 753.286C663.34 753.358 663.212 753.397 663.08 753.4C662.847 753.413 662.633 753.583 662.44 753.91C661.97 754.7 660.68 755.49 659.95 756.11C659.283 756.677 658.57 757.15 657.81 757.53C656.21 758.33 654.833 759.23 653.68 760.23C651.373 762.237 648.903 764.57 646.27 767.23C646.047 767.453 645.885 767.728 645.8 768.03Z" fill="#fcf2de"/>
<path d="M391.14 758.89C390.74 759.237 390.303 759.297 389.83 759.07C389.537 758.93 389.313 758.717 389.16 758.43C388.567 757.303 387.643 756.557 386.39 756.19C386.179 756.13 385.986 756.02 385.827 755.869C385.669 755.717 385.549 755.53 385.479 755.322C385.41 755.114 385.391 754.893 385.426 754.676C385.461 754.46 385.548 754.255 385.68 754.08C386.927 752.42 388.377 750.857 390.03 749.39C390.189 749.251 390.396 749.179 390.607 749.19C390.818 749.201 391.017 749.294 391.16 749.45C404.5 763.86 420.23 776.3 437.68 785.19C452.947 792.97 468.783 799.207 485.19 803.9C485.683 804.047 485.943 804.377 485.97 804.89L485.99 805.32C486.003 805.753 485.8 805.933 485.38 805.86C482.31 805.37 479.6 805.75 476.72 804.23C476.247 803.983 475.98 804.127 475.92 804.66C475.853 805.247 476.07 805.763 476.57 806.21C476.717 806.343 476.693 806.407 476.5 806.4C476.367 806.393 476.267 806.337 476.2 806.23C475.7 805.45 475.017 805.027 474.15 804.96C473.41 804.907 472.687 804.783 471.98 804.59C464.707 802.603 458.44 800.23 453.18 797.47C451.293 796.477 449.423 795.677 447.57 795.07C444.343 794.003 442.303 793.27 441.45 792.87C435.27 789.937 430.15 787.15 426.09 784.51C423.723 782.97 421.42 781.537 419.18 780.21C416.693 778.737 414.35 777.233 412.15 775.7C407.403 772.393 402.787 768.567 398.3 764.22C397.96 763.887 397.553 763.707 397.08 763.68C396.64 763.653 396.317 763.443 396.11 763.05C395.597 762.083 394.823 761.513 393.79 761.34C393.457 761.287 393.22 761.103 393.08 760.79C392.753 760.063 392.337 759.44 391.83 758.92C391.61 758.693 391.38 758.683 391.14 758.89Z" fill="#fcf2de"/>
<path d="M682.82 760.49C685.178 760.49 687.09 758.578 687.09 756.22C687.09 753.862 685.178 751.95 682.82 751.95C680.462 751.95 678.55 753.862 678.55 756.22C678.55 758.578 680.462 760.49 682.82 760.49Z" fill="#fcf2de"/>
<path d="M370.576 760.034C372.525 758.388 372.911 755.64 371.439 753.898C369.967 752.156 367.193 752.079 365.244 753.726C363.295 755.372 362.909 758.12 364.381 759.862C365.854 761.604 368.627 761.681 370.576 760.034Z" fill="#fcf2de"/>
<path d="M239.87 765.61C236.38 765.51 233.36 766.16 230.1 767.18C229.487 767.373 228.91 767.353 228.37 767.12C228.096 767.006 227.879 766.787 227.765 766.512C227.651 766.237 227.649 765.928 227.76 765.65C228.907 762.717 230.927 760.907 233.82 760.22C239.74 758.81 252.15 758.02 256.02 764.21C256.165 764.445 256.243 764.715 256.244 764.991C256.244 765.267 256.168 765.538 256.024 765.773C255.88 766.009 255.673 766.199 255.427 766.324C255.181 766.449 254.905 766.503 254.63 766.48C249.757 766.04 244.837 765.75 239.87 765.61Z" fill="#fcf2de"/>
<path d="M355.49 848.28C355.677 846.807 355.79 845.38 355.83 844C356.157 833.72 356.223 822.883 356.03 811.49C356.03 811.343 356.1 811.27 356.24 811.27L356.51 811.26C356.743 811.253 356.867 811.363 356.88 811.59C357.52 821.697 357.803 831.457 357.73 840.87C357.61 855.53 358.29 869.68 358.23 884.65C358.23 884.905 358.129 885.149 357.949 885.329C357.769 885.509 357.525 885.61 357.27 885.61L342.69 885.59C342.315 885.59 341.955 885.442 341.689 885.178C341.423 884.913 341.273 884.555 341.27 884.18C341.243 853.367 341.327 822.473 341.52 791.5C341.567 784.627 341.753 777.943 342.08 771.45C342.3 767.11 342.85 767.07 343.73 771.33C344.083 773.043 344.543 774.747 345.11 776.44C345.221 776.767 345.422 777.054 345.69 777.27C347.29 778.57 348.207 779.83 348.44 781.05C349.447 786.283 350.493 791.307 351.58 796.12C352.507 800.207 353.08 804 353.3 807.5C353.62 812.77 354.46 817.97 354.38 823.12C354.287 828.98 354.283 835.003 354.37 841.19C354.403 843.49 354.563 845.853 354.85 848.28C355.05 850.027 355.263 850.027 355.49 848.28Z" fill="#fcf2de"/>
<path d="M587.22 828.86C572.07 833.89 556.23 836.79 540.58 838.16C540.484 838.169 540.387 838.156 540.297 838.121C540.207 838.087 540.126 838.033 540.061 837.962C539.995 837.892 539.946 837.807 539.918 837.715C539.891 837.622 539.884 837.525 539.9 837.43C540.427 834.05 540.637 830.49 540.53 826.75C540.518 826.357 540.656 825.974 540.916 825.678C541.176 825.383 541.538 825.198 541.93 825.16C588.02 820.79 629.99 800.2 664.28 769.23C664.467 769.062 664.687 768.936 664.927 768.862C665.166 768.787 665.419 768.765 665.668 768.798C665.917 768.83 666.156 768.916 666.369 769.049C666.581 769.182 666.763 769.36 666.9 769.57C668.7 772.337 670.853 774.467 673.36 775.96C673.444 776.01 673.517 776.078 673.573 776.158C673.629 776.238 673.668 776.329 673.687 776.426C673.706 776.522 673.704 776.621 673.682 776.716C673.66 776.812 673.619 776.902 673.56 776.98C671.693 779.447 669.463 781.777 666.87 783.97C650.69 797.65 632.627 809.277 612.68 818.85C605.66 822.223 597.173 825.56 587.22 828.86Z" fill="#fcf2de"/>
<path d="M452.63 811.6C471.363 818.593 490.6 823.27 510.34 825.63C510.496 825.647 510.641 825.719 510.75 825.835C510.858 825.95 510.922 826.101 510.93 826.26L511.52 837.06C511.53 837.212 511.508 837.365 511.456 837.509C511.404 837.652 511.322 837.783 511.217 837.894C511.112 838.005 510.985 838.093 510.845 838.152C510.704 838.212 510.553 838.242 510.4 838.24C508.427 838.24 506.5 838.12 504.62 837.88C495.53 836.71 485.45 835.29 476.56 833.09C451.32 826.843 427.867 816.497 406.2 802.05C396.01 795.26 386.72 788.41 378.94 779.39C378.578 778.971 378.391 778.428 378.419 777.875C378.447 777.322 378.687 776.8 379.09 776.42L384.63 771.21C384.748 771.099 384.831 770.96 384.87 770.81C384.977 770.423 385.18 770.127 385.48 769.92C385.807 769.7 386.117 769.723 386.41 769.99C405.72 787.86 428 802.4 452.63 811.6Z" fill="#fcf2de"/>
<path d="M234.11 779.35C232.763 779.523 231.393 779.873 230 780.4C229.786 780.48 229.554 780.504 229.328 780.47C229.102 780.436 228.888 780.344 228.708 780.205C228.527 780.066 228.386 779.883 228.297 779.673C228.208 779.464 228.175 779.236 228.2 779.01C228.85 772.99 236.56 772.6 241.14 772.43C245.09 772.28 256.68 772.74 256.05 779.01C256.032 779.202 255.973 779.387 255.878 779.555C255.783 779.723 255.653 779.869 255.498 779.984C255.343 780.099 255.165 780.18 254.976 780.222C254.786 780.265 254.59 780.267 254.4 780.23C247.26 778.81 240.497 778.517 234.11 779.35Z" fill="#fcf2de"/>
<path d="M250.96 786.85C253.85 787.73 256.81 789.18 255.71 792.91C255.656 793.1 255.531 793.262 255.36 793.362C255.189 793.463 254.985 793.494 254.79 793.45C249.403 792.17 243.78 791.587 237.92 791.7C234.947 791.753 232.263 792.353 229.87 793.5C229.597 793.631 229.285 793.655 228.996 793.568C228.707 793.481 228.462 793.289 228.31 793.03C226.73 790.29 230.56 787.31 232.8 786.71C239.087 785.023 245.14 785.07 250.96 786.85Z" fill="#fcf2de"/>
<path d="M232.01 800.23C238.6 798.14 246.35 798.72 252.54 801.27C253.193 801.538 253.784 801.937 254.276 802.441C254.768 802.945 255.151 803.544 255.4 804.2L255.68 804.96C256.273 806.533 255.75 807.14 254.11 806.78C245.523 804.887 237.383 804.973 229.69 807.04C229.486 807.094 229.272 807.098 229.066 807.052C228.86 807.005 228.668 806.91 228.507 806.773C228.346 806.637 228.22 806.463 228.141 806.268C228.061 806.072 228.03 805.86 228.05 805.65C228.323 802.79 229.643 800.983 232.01 800.23Z" fill="#fcf2de"/>
<path d="M505.04 807.56C504.073 807.473 503.42 807.923 503.08 808.91C502.938 809.328 502.646 809.678 502.26 809.89C501.64 810.23 501.213 810.773 500.98 811.52C500.949 811.621 500.891 811.712 500.812 811.783C500.733 811.853 500.637 811.901 500.532 811.921C500.428 811.94 500.321 811.931 500.222 811.894C500.123 811.857 500.036 811.793 499.97 811.71C499.717 811.377 499.697 811.013 499.91 810.62C500.56 809.45 501.85 809.94 502.3 808.28C502.346 808.097 502.446 807.93 502.59 807.8L505.09 805.49C505.161 805.423 505.246 805.373 505.338 805.344C505.431 805.314 505.529 805.304 505.626 805.317C505.722 805.329 505.815 805.363 505.897 805.415C505.979 805.468 506.048 805.538 506.1 805.62C506.287 805.92 506.337 806.27 506.25 806.67C506.192 806.942 506.036 807.184 505.813 807.348C505.59 807.512 505.315 807.588 505.04 807.56Z" fill="#fcf2de"/>
<path d="M503.733 810.78C503.464 811.211 503.504 811.721 503.823 811.92C504.141 812.119 504.617 811.931 504.887 811.5C505.156 811.069 505.116 810.559 504.798 810.36C504.479 810.161 504.003 810.349 503.733 810.78Z" fill="#fcf2de"/>
<path d="M554.22 811.044C553.968 811.365 553.978 811.794 554.243 812.002C554.509 812.21 554.928 812.118 555.18 811.796C555.432 811.475 555.422 811.046 555.157 810.838C554.892 810.63 554.472 810.722 554.22 811.044Z" fill="#fcf2de"/>
<path d="M494.7 811.82C495.087 811.907 495.343 812.117 495.47 812.45C495.557 812.663 495.503 812.843 495.31 812.99C495.203 813.07 495.087 813.127 494.96 813.16C494.44 813.3 494.213 813.1 494.28 812.56L494.34 812.07C494.367 811.857 494.487 811.773 494.7 811.82Z" fill="#fcf2de"/>
<path d="M254.05 815.15C255.277 815.87 255.853 817.063 255.78 818.73C255.769 818.943 255.709 819.151 255.605 819.337C255.501 819.524 255.356 819.683 255.181 819.804C255.006 819.925 254.805 820.004 254.595 820.034C254.385 820.065 254.172 820.046 253.97 819.98C245.777 817.313 237.663 817.227 229.63 819.72C229.43 819.784 229.215 819.794 229.008 819.748C228.801 819.703 228.608 819.603 228.45 819.46C228.143 819.187 227.997 818.823 228.01 818.37C228.12 815.13 233.18 813 236.2 812.64C242.26 811.89 248.61 811.96 254.05 815.15Z" fill="#fcf2de"/>
<path d="M524.088 828.747C526.314 829.526 528.705 828.481 529.43 826.411C530.155 824.342 528.938 822.033 526.712 821.253C524.486 820.474 522.095 821.519 521.37 823.589C520.645 825.658 521.862 827.967 524.088 828.747Z" fill="#fcf2de"/>
<path d="M263.74 853.116C262.957 855.939 261.614 858.577 259.786 860.879C257.958 863.181 255.681 865.102 253.087 866.532C250.492 867.962 247.63 868.874 244.663 869.215C241.697 869.556 238.684 869.319 235.798 868.519C229.968 866.902 225.006 863.086 222.002 857.911C218.998 852.737 218.198 846.626 219.78 840.924C220.563 838.101 221.906 835.463 223.734 833.161C225.562 830.859 227.839 828.938 230.433 827.508C233.028 826.078 235.89 825.166 238.857 824.825C241.823 824.484 244.836 824.721 247.722 825.521C253.552 827.138 258.514 830.954 261.518 836.129C264.522 841.303 265.322 847.414 263.74 853.116ZM253.694 850.398C254.178 848.925 254.355 847.366 254.214 845.812C254.074 844.257 253.618 842.737 252.874 841.338C252.13 839.939 251.111 838.688 249.877 837.657C248.642 836.627 247.216 835.836 245.679 835.331C244.142 834.825 242.524 834.615 240.919 834.712C239.314 834.809 237.752 835.211 236.323 835.896C234.893 836.58 233.625 837.534 232.589 838.701C231.553 839.869 230.771 841.229 230.286 842.702C229.802 844.175 229.625 845.734 229.766 847.288C229.906 848.843 230.362 850.363 231.106 851.762C231.85 853.161 232.869 854.412 234.103 855.443C235.338 856.473 236.764 857.264 238.301 857.769C239.838 858.275 241.456 858.485 243.061 858.388C244.666 858.291 246.228 857.889 247.658 857.204C249.087 856.52 250.356 855.566 251.391 854.398C252.427 853.231 253.209 851.871 253.694 850.398Z" fill="#fcf2de"/>
<path d="M243.052 850.37C245.457 849.744 246.918 847.36 246.315 845.046C245.712 842.732 243.274 841.363 240.869 841.99C238.464 842.616 237.003 845 237.605 847.314C238.208 849.628 240.646 850.997 243.052 850.37Z" fill="#fcf2de"/>
<path d="M360.204 894.309L338.204 894.271C336.95 894.269 335.932 895.283 335.93 896.537L335.93 896.697C335.928 897.951 336.942 898.969 338.196 898.971L360.196 899.009C361.45 899.011 362.468 897.997 362.47 896.743L362.47 896.583C362.472 895.329 361.458 894.311 360.204 894.309Z" fill="#fcf2de"/>
<path d="M353.12 913.14C347.22 916.47 342.74 911.64 340.29 906.78C340.234 906.667 340.207 906.541 340.213 906.414C340.219 906.287 340.258 906.165 340.325 906.057C340.392 905.95 340.486 905.861 340.597 905.801C340.708 905.74 340.833 905.709 340.96 905.71L359.03 905.78C359.123 905.779 359.215 905.802 359.297 905.847C359.378 905.893 359.446 905.959 359.494 906.039C359.541 906.119 359.567 906.21 359.568 906.304C359.569 906.397 359.546 906.489 359.5 906.57C357.947 909.423 355.82 911.613 353.12 913.14Z" fill="#fcf2de"/>
</g>
<defs>
<clipPath id="clip0_165_1529">
<rect width="923" height="923" fill="white"/>
</clipPath>
</defs>
</svg>
