<svg width="40" height="37" viewBox="0 0 40 37" fill="none" xmlns="http://www.w3.org/2000/svg">
<path fill-rule="evenodd" clip-rule="evenodd" d="M21.4201 2.38416C25.3983 2.75214 29.109 4.40529 31.9001 7.05309C34.9409 9.91041 36.7386 13.7028 36.9507 17.7075C37.1628 21.7121 35.7744 25.6489 33.0501 28.7675C30.5445 31.6484 27.0283 33.6278 23.1107 34.3627C19.1932 35.0975 15.1211 34.5416 11.6001 32.7912C8.07154 31.0029 5.31692 28.1446 3.8001 24.6975C2.27649 21.2327 2.0737 17.3912 3.2251 13.8056C4.37403 10.2339 6.81998 7.13829 10.1501 5.04122C13.4522 2.95745 17.4426 2.01667 21.4201 2.38416ZM22.6001 32.0975C25.9572 31.4676 28.9719 29.7749 31.1251 27.3106C33.4566 24.6303 34.6428 21.2513 34.4585 17.8152C34.2741 14.3792 32.7321 11.1255 30.1251 8.67184C27.7373 6.41718 24.5688 5.01051 21.1734 4.69771C17.778 4.3849 14.3718 5.18587 11.5501 6.96059C9.42619 8.31432 7.71109 10.1472 6.56728 12.2857C5.42348 14.4241 4.88884 16.7972 5.01402 19.1803C5.13921 21.5633 5.92006 23.8773 7.28262 25.9031C8.64517 27.9289 10.5443 29.5993 12.8001 30.7562C15.7959 32.2518 19.2644 32.7265 22.6001 32.0975ZM18.4376 13.875H21.5626V11.5625H18.4376V13.875ZM21.5626 16.1875V25.4375H18.4376V16.1875H21.5626Z" fill="#374259"/>
</svg>
