<svg width="375" height="559" viewBox="0 0 375 559" fill="none" xmlns="http://www.w3.org/2000/svg">
<path d="M67.9514 384.587C67.9252 384.587 67.9078 384.606 67.8991 384.642C67.8947 384.661 67.9024 384.675 67.922 384.684C68.9521 385.149 69.881 385.503 70.7086 385.746C72.7602 386.344 75.5893 387.103 79.196 388.022C79.9408 388.211 80.6726 388.364 81.3913 388.48C82.0861 388.59 82.8179 388.709 83.5867 388.838C84.6495 389.019 85.7461 389.179 86.8764 389.319C89.5291 389.651 92.3659 389.962 95.3866 390.252C96.4952 390.36 97.6865 390.426 98.9606 390.452C99.3526 390.461 99.7806 390.533 100.244 390.668C100.774 390.823 101.167 390.999 101.424 391.195C103.809 392.996 106.08 394.533 108.239 395.807C111.425 397.69 114.459 399.429 117.34 401.023C118.993 401.936 120.57 402.772 122.071 403.531C123.482 404.246 125.113 404.945 126.964 405.629C127.642 405.879 128.31 406.165 128.97 406.488C129.626 406.808 130.286 407.123 130.95 407.43C131.048 407.478 131.152 407.499 131.264 407.495C131.577 407.484 131.835 407.622 132.038 407.908C132.114 408.018 132.092 408.044 131.972 407.985C131.827 407.914 131.669 407.877 131.499 407.872C131.351 407.87 131.341 407.904 131.469 407.973C131.844 408.173 132.219 408.302 132.593 408.36C133.478 408.502 134.155 408.928 135.066 408.98C135.554 409.008 136.05 409.104 136.553 409.27C137.038 409.429 137.554 409.577 138.101 409.712C139.255 409.996 140.403 410.306 141.544 410.642C142.686 410.975 143.882 411.109 145.135 411.042C145.244 411.036 145.334 410.993 145.406 410.913C145.757 410.521 146.253 410.271 146.896 410.161C147.51 410.054 147.546 409.432 147.124 409.06C146.543 408.55 145.937 408.205 145.308 408.024C144.008 407.652 142.697 407.315 141.375 407.014C134.007 405.338 126.91 402.543 120.084 398.631C119.625 398.369 119.247 398.037 118.951 397.637C118.885 397.547 118.852 397.446 118.849 397.334C118.843 396.609 118.923 395.908 119.091 395.232C120.781 388.439 121.614 382.042 121.59 376.04C121.553 366.49 120.188 357.455 117.494 348.933C116.461 345.667 115.26 342.148 113.89 338.378C113.047 336.067 112.381 333.688 111.43 331.426C111.023 330.459 110.324 330.026 109.333 330.125C108.765 330.183 108.372 330.509 108.19 331.038C107.238 333.808 106.401 336.523 105.681 339.185C104.324 344.186 103.485 349.281 103.165 354.469C102.634 363.065 103.685 371.481 106.318 379.717C107.464 383.299 108.66 386.427 110.228 389.732C110.859 391.062 111.287 392.421 111.832 393.774C111.948 394.053 111.87 394.121 111.6 393.977C107.027 391.53 102.92 388.399 98.7613 385.029C95.6752 382.527 92.7884 379.816 90.1008 376.895C87.3468 373.9 85.3606 370.634 83.7075 367.219C83.5529 366.904 83.5605 366.574 83.7304 366.228C84.1355 365.397 84.5537 364.676 84.9849 364.065C87.0593 361.137 88.8365 358.136 90.6007 355.03C91.3477 353.711 92.0294 352.364 92.6457 350.989C93.5452 348.982 94.1311 347.579 94.4033 346.78C96.9384 339.374 98.4738 331.788 99.0096 324.024C99.3668 318.832 99.3385 313.514 98.9247 308.069C98.5751 303.444 97.6963 298.793 96.6869 294.264C96.4865 293.36 96.1968 292.477 95.8179 291.614C95.7677 291.499 95.6749 291.407 95.5587 291.358C95.4425 291.309 95.3119 291.306 95.1939 291.35C94.24 291.7 93.5049 292.248 92.9887 292.992C90.5212 296.547 88.3596 300.24 86.504 304.07C84.3707 308.473 82.7405 313.308 81.5449 317.837C79.2929 326.345 78.0406 335.457 77.7879 345.173C77.6573 350.247 78.2061 355.495 79.1241 360.321C79.2526 361.001 79.1339 361.045 78.768 360.453C74.9741 354.303 71.9206 347.957 69.6077 341.416C68.2682 337.626 67.1074 334.03 66.1252 330.628C64.4024 324.651 63.2187 318.549 62.5741 312.324C62.5 311.607 62.5501 310.915 62.7243 310.248C62.8485 309.764 63.3026 309.338 63.6652 309.015C71.0048 302.486 77.0431 294.888 81.7801 286.221C87.288 276.147 90.2282 264.536 90.9012 253.042C90.984 251.637 90.9938 250.148 90.9306 248.575C90.9175 248.222 90.9469 247.867 91.0188 247.51C91.2867 246.193 89.8329 245.573 88.83 246.319C84.9947 249.156 81.7147 252.745 78.5426 256.431C76.7306 258.542 74.7116 261.37 72.4858 264.914C71.4447 266.573 70.4004 268.48 69.3529 270.634C67.678 274.074 66.478 276.904 65.7527 279.123C63.6064 285.698 62.4532 293.26 61.8684 300.652C61.814 301.341 61.6855 301.354 61.4829 300.691C61.019 299.187 60.7174 297.649 60.578 296.078C60.2121 291.934 60.1696 287.695 60.4506 283.361C60.823 277.611 61.1682 273.388 61.4862 270.692C61.9414 266.855 62.6982 262.241 63.7567 256.851C64.2206 254.501 64.7095 252.56 65.2235 251.028C65.7364 249.495 69.4476 247.968 70.8752 247.403C76.7327 245.089 82.6229 242.094 87.7193 238.256C89.8057 236.685 91.4239 235.399 92.5739 234.399C95.942 231.471 99.4376 228.127 102.273 224.825C106.392 220.024 110.02 214.624 113.158 208.625C113.659 207.667 114.38 206.137 115.321 204.035C116.288 201.872 117.294 199.435 117.912 197.292C118.086 196.694 117.824 196.318 117.124 196.165C116.678 196.066 115.953 196.174 114.949 196.488C110.689 197.818 106.2 199.271 102.08 201.181C96.762 203.647 91.7746 206.658 87.1182 210.213C85.0731 211.775 83.0542 213.35 81.0614 214.938C80.678 215.244 80.5604 215.164 80.7085 214.699C81.2606 212.943 82.2374 211.417 83.3482 209.955C86.4321 205.89 89.8623 201.917 93.6388 198.038C94.4196 197.237 95.1122 196.278 95.9583 195.475C97.8205 193.706 99.4931 191.976 101.636 190.426C102.531 189.781 103.581 189.409 104.785 189.31C106.92 189.135 109.05 188.933 111.175 188.703C117.827 187.98 123.916 186.114 130.244 183.616C132.161 182.856 134.132 181.95 136.157 180.898C139.703 179.054 142.863 177.297 145.638 175.627C150.601 172.638 155.589 168.989 160.6 164.678C161.214 164.152 161.913 163.855 162.629 163.5C162.936 163.348 163.052 163.103 162.978 162.768C162.787 161.881 162.286 161.326 161.476 161.102C160.234 160.758 158.838 160.491 157.288 160.302C150.868 159.52 144.109 160.095 137.885 161.912C134.187 162.994 130.303 164.369 126.788 166.128C118.769 170.141 111.554 175.227 105.145 181.385C99.6782 186.638 94.4959 192.151 89.5977 197.925C89.5454 197.989 89.4845 197.997 89.4148 197.947C89.369 197.915 89.3603 197.87 89.3886 197.812C89.7654 197.061 90.0638 196.367 90.2838 195.73C91.3684 192.605 92.6588 189.416 93.4494 186.23C95.3747 178.466 96.0847 170.644 95.5794 162.764C95.3158 158.663 94.7028 154.317 93.7401 149.727C93.5637 148.882 92.7078 147.429 91.6167 148.236C91.046 148.658 90.5506 149.195 90.1302 149.847C86.223 155.912 83.2306 162.083 80.4668 168.826C79.1274 172.093 77.9273 175.915 76.8667 180.294C75.5207 185.866 75.2038 192.24 76.1055 197.592C76.6826 201.009 77.4983 204.279 78.5524 207.401C79.0228 208.789 78.8627 210.31 78.229 211.698C76.6347 215.173 74.8456 218.732 72.8615 222.375C71.9119 224.118 71.0897 225.757 70.395 227.291C69.3398 229.625 68.3303 232.045 67.1869 234.382C67.0758 234.613 66.9462 234.623 66.7981 234.415C66.7241 234.311 66.6838 234.19 66.6773 234.05C66.5466 231.36 66.4758 228.57 66.4649 225.68C66.4584 224.587 66.1916 222.089 65.6645 218.185C65.3618 215.935 64.9774 213.824 64.5113 211.852C63.503 207.59 62.3846 203.665 61.1562 200.078C59.5664 195.434 57.334 190.511 54.4591 185.31C53.5401 183.647 52.5622 182.098 51.5255 180.662C51.2249 180.249 50.8264 179.908 50.3298 179.639C50.1941 179.566 50.037 179.54 49.8851 179.568C49.7332 179.596 49.596 179.674 49.4967 179.791C49.1799 180.159 49.1537 180.559 49.0459 181.011C47.4168 187.852 46.4923 194.706 46.2723 201.575C46.109 206.649 46.4596 211.508 47.3243 216.152C48.4176 222.022 50.4626 227.841 53.4595 233.608C54.3285 235.283 55.4751 237.058 56.5107 238.74C58.0592 241.248 59.8136 243.582 61.3555 246.309C61.9131 247.297 62.1222 248.189 61.9828 248.985C61.6169 251.085 61.2205 253.184 60.7936 255.282C60.1664 258.366 59.5152 261.697 58.84 265.275C58.5024 267.062 57.8523 272.741 56.8897 282.315C56.8853 282.358 56.8646 282.391 56.8276 282.415C56.8213 282.419 56.8139 282.422 56.8062 282.423C56.7985 282.424 56.7907 282.424 56.7834 282.421C56.776 282.419 56.7694 282.414 56.764 282.409C56.7587 282.403 56.7547 282.397 56.7525 282.389C55.8944 279.71 55.0951 277.033 54.3546 274.358C53.6577 271.841 52.9869 269.729 52.3422 268.022C50.7044 263.684 48.8673 259.772 46.831 256.286C43.7841 251.072 39.8682 246.224 35.0833 241.742C32.8422 239.64 30.6174 237.61 27.968 236.061C27.4845 235.779 27.16 235.892 26.9945 236.4C26.7309 237.194 26.6209 238.074 26.6645 239.04C26.9879 246.367 28.0627 254.02 30.4279 261.06C31.5147 264.29 32.2596 266.386 32.6625 267.348C33.8734 270.242 35.2564 273.106 36.8114 275.94C38.0311 278.161 39.658 280.717 41.6922 283.609C42.7833 285.163 44.1815 286.826 45.8868 288.599C49.328 292.182 52.7244 295.311 56.0762 297.986C56.7645 298.535 57.1619 299.268 57.2687 300.187C58.1093 307.379 59.1841 314.338 60.4931 321.065C61.0027 323.673 61.3392 326.216 61.7541 328.721C61.8129 329.084 61.7323 329.117 61.5123 328.818C61.2739 328.495 61.1399 328.082 60.8818 327.749C58.3957 324.563 55.9162 321.236 53.2439 318.26C49.9138 314.548 46.3224 311.112 42.4697 307.953C36.2234 302.828 29.6047 298.257 22.2346 294.852C21.627 294.571 20.8789 294.416 20.2059 294.332C20.1797 294.329 20.1532 294.331 20.128 294.339C20.1029 294.347 20.0797 294.36 20.0602 294.377C20.0407 294.395 20.0252 294.416 20.0148 294.44C20.0044 294.464 19.9994 294.49 20.0001 294.516C20.0393 295.82 20.269 297.097 20.6894 298.347C22.6887 304.293 25.3708 310.091 28.7357 315.742C30.2711 318.32 31.8686 320.614 33.5282 322.623C35.7845 325.354 37.9766 327.829 40.1045 330.047C41.3676 331.364 42.5949 332.502 43.7862 333.459C47.3319 336.308 50.8514 338.637 54.3448 340.444C57.6378 342.148 60.9896 343.606 64.4003 344.818C65.6841 345.273 67.7194 346.209 68.229 347.542C68.5666 348.426 69.0011 349.242 69.5325 349.989C69.5913 350.068 69.6262 350.156 69.6371 350.253C69.6567 350.395 69.6828 350.502 69.7808 350.608C70.0531 350.903 70.2512 351.237 70.3754 351.609C70.4669 351.884 70.5736 352.145 70.6955 352.39C73.1326 357.268 75.904 362.108 79.0098 366.909C80.3056 368.912 81.5884 370.975 82.8581 373.096C83.1478 373.583 83.0411 373.692 82.538 373.426C79.8156 371.982 76.9756 370.523 74.018 369.049C70.8861 367.491 67.4352 366.012 63.6652 364.614C63.3298 364.491 62.9879 364.347 62.6394 364.181C62.2866 364.018 61.9229 363.875 61.5483 363.752C59.2092 362.99 56.8309 362.469 54.4134 362.19C54.3001 362.177 54.2 362.136 54.1128 362.067C54.0083 361.987 53.8863 361.958 53.747 361.98C53.6402 361.997 53.5357 361.987 53.4333 361.951C52.8126 361.727 52.1277 361.579 51.3785 361.505C50.6892 361.434 50.0717 361.105 49.3628 361.063C48.912 361.035 48.4535 360.953 47.9874 360.818C47.5344 360.687 47.0792 360.595 46.6219 360.544C43.6011 360.204 40.5662 360.041 37.5171 360.056C35.9424 360.066 33.9921 360.217 32.607 361.024C32.4491 361.117 32.3329 361.266 32.2819 361.44C32.2309 361.614 32.249 361.8 32.3325 361.96C32.5895 362.455 32.9293 362.875 33.3518 363.219C36.9476 366.144 40.625 369.09 44.3841 372.057C45.2139 372.713 46.011 373.289 46.7754 373.784C48.4829 374.888 50.773 376.278 53.6457 377.954C53.6653 377.965 53.6871 377.968 53.711 377.964C53.7546 377.957 53.797 377.963 53.8384 377.98C53.8602 377.989 53.8798 378 53.8972 378.015C54.237 378.291 54.6029 378.516 54.9949 378.69C55.3608 378.851 55.7245 379.044 56.086 379.268C56.7873 379.7 57.5474 380.08 58.3663 380.407C59.0132 380.665 59.6404 380.966 60.248 381.308C61.6419 382.091 63.1262 382.837 64.7008 383.545C65.8246 384.05 66.9081 384.395 67.9514 384.578C68.0254 384.59 68.0254 384.594 67.9514 384.587Z" stroke="#eee6d5" stroke-width="2"/>
<path d="M248.094 182.341C248.063 182.341 248.034 182.345 248.005 182.351C247.926 182.37 247.923 182.399 247.995 182.438C248.591 182.762 249.163 182.98 249.711 183.091C249.845 183.117 249.863 183.106 249.764 183.059C249.733 183.044 249.706 183.051 249.682 183.081C249.66 183.111 249.666 183.132 249.701 183.143L253.137 184.378C253.194 184.398 253.232 184.435 253.252 184.491C253.267 184.527 253.286 184.562 253.308 184.594C253.352 184.658 253.411 184.701 253.485 184.723C254.192 184.925 254.866 185.228 255.57 185.427C256.433 185.67 257.38 185.91 258.41 186.148C258.564 186.185 258.711 186.201 258.854 186.196C259.288 186.19 259.87 186.508 260.281 186.647C260.607 186.761 260.954 186.857 261.32 186.936C265.352 187.812 269.361 188.419 273.345 188.758C274.976 188.896 277.123 188.89 278.533 189.604C279.072 189.879 279.575 190.222 280.042 190.634C283.524 193.717 286.765 196.819 289.901 200.368C294.031 205.043 298.295 209.832 300.81 215.588C300.82 215.611 300.823 215.636 300.817 215.66C300.81 215.683 300.795 215.704 300.775 215.718C300.754 215.732 300.729 215.738 300.704 215.736C300.679 215.733 300.656 215.722 300.639 215.704C300.229 215.322 299.829 214.965 299.439 214.633C297.321 212.82 295.319 211.244 293.432 209.906C291.383 208.453 289.026 206.916 286.361 205.294C284.57 204.205 282.655 203.179 280.614 202.218C275.234 199.685 269.856 197.696 264.482 196.252C264.243 196.188 264 196.143 263.752 196.117C263.695 196.111 263.636 196.117 263.581 196.135C263.526 196.153 263.476 196.183 263.433 196.221C263.391 196.26 263.358 196.307 263.335 196.36C263.313 196.412 263.303 196.469 263.305 196.526C263.34 197.36 263.467 198.11 263.687 198.775C264.289 200.605 265.078 202.552 266.054 204.615C270.41 213.841 275.969 222.304 283.231 229.38C288.149 234.175 293.685 238.789 299.478 242.033C301.418 243.118 303.437 244.176 305.537 245.206C308.095 246.461 310.817 247.6 313.486 248.713C314.844 249.276 315.656 249.994 316.001 251.352C317.373 256.745 318.476 262.307 319.308 268.037C320.157 273.859 320.743 279.081 321.067 283.704C321.42 288.739 321.164 293.883 320.298 299.134C320.083 300.441 319.925 300.434 319.825 299.115C319.292 292.201 317.928 285.47 315.732 278.923C312.83 270.267 308.246 262.453 301.98 255.48C299.041 252.208 295.569 248.745 292.055 246.213C291.595 245.88 291.127 245.875 290.651 246.197C290.601 246.231 290.559 246.276 290.527 246.327C290.496 246.379 290.475 246.436 290.467 246.496C290.364 247.185 290.326 247.893 290.352 248.62C290.486 252.34 290.758 255.763 291.17 258.888C292.645 270.046 296.265 280.29 302.029 289.622C304.644 293.857 307.62 297.91 310.958 301.782C312.825 303.945 315.123 305.737 317.047 307.842C317.904 308.781 318.369 309.636 318.444 310.406C318.571 311.73 318.422 313.775 317.997 316.543C317.195 321.782 315.998 326.989 314.407 332.166C313.48 335.187 312.457 338.376 311.316 341.259C309.719 345.305 307.876 349.367 305.787 353.445C304.86 355.258 303.776 356.943 302.535 358.501C302.459 358.597 302.36 358.662 302.24 358.694C302.227 358.698 302.213 358.699 302.2 358.696C302.186 358.693 302.174 358.687 302.164 358.679C302.153 358.67 302.146 358.659 302.141 358.646C302.136 358.634 302.135 358.62 302.138 358.607C302.909 353.654 303.232 348.673 303.107 343.666C303.035 340.783 302.878 337.854 302.637 334.878C301.712 323.436 298.757 312.662 293.771 302.558C292.808 300.608 291.535 298.529 290.404 296.508C289.99 295.77 288.934 294.263 287.235 291.987C286.775 291.373 285.588 290.578 285.151 291.694C284.774 292.66 284.476 293.673 284.257 294.735C283.338 299.204 282.669 303.914 282.248 308.865C281.065 322.843 283.415 337.06 288.692 350.038C289.477 351.968 290.631 354.272 291.595 355.914C292.699 357.801 293.829 359.768 294.984 361.812C295.678 363.038 296.493 364.177 297.197 365.387C297.422 365.777 297.441 366.17 297.252 366.565C294.225 372.898 289.08 378.152 283.52 383.095C280.542 385.742 276.958 388.555 272.77 391.532C271.619 392.353 270.255 392.826 269.18 393.785C268.678 394.233 268.566 394.155 268.845 393.55C271.61 387.532 274.177 381.592 275.683 375.176C278.186 364.501 278.458 353.829 276.498 343.161C275.843 339.589 274.985 336.052 273.924 332.549C273.681 331.751 273.516 330.73 272.941 330.161C271.616 328.845 270.512 330.837 270.002 331.902C267.271 337.627 265.027 343.234 263.269 348.722C259.675 359.933 258.485 371.475 259.699 383.349C259.822 384.546 260.023 385.826 260.304 387.188C260.915 390.146 261.533 393.082 262.158 395.995C262.241 396.384 262.228 396.763 262.118 397.135C262.088 397.24 262.029 397.326 261.941 397.392C261.406 397.804 260.865 398.155 260.317 398.444C256.532 400.444 252.793 402.19 249.1 403.683C247.083 404.496 244.95 405.135 242.699 405.601C242.67 405.607 242.669 405.614 242.696 405.62C242.707 405.622 242.717 405.627 242.725 405.633C242.752 405.654 242.747 405.669 242.712 405.678C241.956 405.867 241.179 406.011 240.381 406.109C238.882 406.293 237.344 406.563 235.963 407.02C235.165 407.284 234.523 407.897 234.036 408.861C233.99 408.951 233.982 409.057 234.013 409.153C234.202 409.743 234.635 410.149 235.312 410.37C236.644 410.803 237.801 410.874 238.78 410.582C238.791 410.58 238.798 410.572 238.8 410.56C238.804 410.549 238.805 410.538 238.803 410.527C238.803 410.497 238.82 410.479 238.853 410.473C239.782 410.292 240.603 410.074 241.315 409.816C241.589 409.718 241.864 409.644 242.14 409.594C242.416 409.543 242.687 409.478 242.952 409.401C244.105 409.064 245.27 408.717 246.447 408.359C246.936 408.211 247.448 408.025 247.985 407.802C248.474 407.6 248.983 407.395 249.511 407.187C249.636 407.138 249.761 407.108 249.886 407.097C250.063 407.082 250.2 407.004 250.297 406.862C250.332 406.813 250.38 406.786 250.441 406.782C250.638 406.773 250.835 406.725 251.03 406.637C252.728 405.867 254.405 405.091 256.06 404.31C256.564 404.074 257.062 403.877 257.555 403.718C258.057 403.557 258.537 403.359 258.995 403.123C260.863 402.161 262.602 401.15 264.558 400.291C265.516 399.873 266.482 399.365 267.457 398.766C270.583 396.848 273.431 395.063 276.002 393.411C277.652 392.353 279.575 390.564 281.166 389.939C282.037 389.598 282.998 389.383 284.05 389.293C288.678 388.9 293.383 388.627 298.219 387.677C298.719 387.579 299.298 387.49 299.958 387.41C300.532 387.339 301.116 387.249 301.71 387.14C301.741 387.136 301.741 387.131 301.71 387.127L301.247 387.088C301.22 387.086 301.22 387.082 301.247 387.075C301.821 386.949 302.42 386.848 303.045 386.773C303.766 386.685 304.357 386.585 304.817 386.474C305.718 386.257 306.603 386.037 307.473 385.814C307.576 385.788 307.666 385.739 307.743 385.666C307.934 385.482 308.223 385.33 308.611 385.212C310.623 384.601 312.569 383.953 314.449 383.269C316.558 382.501 318.45 381.719 320.127 380.923C325.462 378.389 330.474 375.476 335.164 372.183C339.25 369.315 343.036 366.274 346.523 363.06C347.084 362.541 347.544 361.932 347.903 361.233C347.945 361.152 347.97 361.064 347.976 360.974C347.982 360.884 347.969 360.793 347.939 360.708C347.909 360.623 347.861 360.544 347.799 360.478C347.737 360.411 347.662 360.357 347.578 360.319C346.693 359.916 345.748 359.694 344.744 359.653C338.639 359.411 332.189 360.003 326.127 361.461C323.694 362.047 321.233 362.693 318.743 363.398C312.595 365.139 306.697 367.871 300.928 370.873C300.395 371.15 299.474 371.578 298.163 372.157C297.97 372.241 297.931 372.196 298.045 372.022C299.724 369.482 301.482 366.864 303.321 364.167C304.641 362.23 305.776 360.394 306.727 358.658C308.721 355.024 310.577 351.37 312.293 347.695C313.073 346.03 314.273 344.932 315.893 344.4C317.328 343.93 318.592 343.475 319.683 343.036C321.787 342.188 323.929 341.244 326.107 340.204C327.473 339.552 328.822 338.798 330.154 337.942C335.996 334.193 341.036 329.862 345.375 324.694C347.234 322.48 348.774 320.479 349.994 318.692C354.268 312.45 357.72 305.467 360.35 297.744C360.694 296.731 360.91 295.718 360.998 294.703C361.006 294.604 360.991 294.503 360.952 294.411C360.914 294.318 360.854 294.235 360.778 294.169C360.701 294.103 360.61 294.056 360.511 294.031C360.412 294.005 360.309 294.003 360.209 294.024C359.183 294.237 358.237 294.556 357.372 294.983C349.539 298.847 342.305 303.69 335.671 309.512C330.891 313.711 326.242 318.036 322.349 323.233C321.446 324.436 320.526 325.728 319.588 327.107C319.303 327.525 319.219 327.49 319.335 327.001C321.442 318.078 322.583 308.46 323.569 299.15C323.611 298.751 323.684 298.363 323.789 297.985C323.817 297.883 323.878 297.792 323.964 297.725C324.828 297.049 325.584 296.373 326.531 295.736C329.477 293.752 331.689 291.97 333.169 290.391C334.921 288.525 336.851 286.675 338.304 284.715C341.157 280.866 343.421 277.322 345.096 274.083C348.451 267.587 350.963 260.537 352.631 252.932C353.652 248.266 354.244 243.547 354.406 238.776C354.446 237.642 354.36 236.533 354.15 235.449C354.138 235.391 354.115 235.336 354.08 235.287C354.046 235.239 354.002 235.198 353.95 235.167C353.899 235.136 353.841 235.117 353.782 235.109C353.722 235.102 353.661 235.107 353.604 235.124C352.962 235.315 352.364 235.6 351.809 235.98C348.175 238.456 344.733 241.616 341.483 245.46C339.711 247.555 337.867 249.849 336.407 252.108C333.279 256.948 330.626 262.173 328.448 267.782C327.76 269.552 327.206 271.266 326.788 272.925C326.113 275.598 325.402 278.437 324.657 281.442C324.642 281.507 324.608 281.56 324.555 281.603C324.53 281.624 324.499 281.637 324.467 281.641C324.434 281.646 324.401 281.641 324.371 281.627C324.341 281.614 324.315 281.592 324.298 281.565C324.28 281.538 324.27 281.507 324.269 281.474C324.223 279.866 324.108 278.318 323.924 276.831C323.534 273.686 323.073 270.56 322.54 267.454C321.731 262.73 321.097 258.18 320.094 253.505C319.735 251.831 319.533 250.278 319.489 248.845C319.47 248.167 319.604 247.531 319.894 246.937C320.66 245.367 321.613 243.886 322.596 242.442C323.872 240.562 324.904 238.58 326.101 236.604C328.934 231.926 331.068 226.915 332.469 221.638C332.649 220.953 332.669 220.267 332.83 219.566C334.82 210.974 335.188 202.225 333.935 193.318C333.369 189.289 332.671 185.424 331.841 181.723C331.744 181.297 331.567 180.895 331.308 180.52C330.92 179.954 330.062 180.05 329.599 180.417C329.158 180.767 328.658 181.352 328.099 182.174C325.867 185.45 324.161 189.16 322.33 192.7C321.449 194.407 320.619 196.336 319.841 198.485C317.031 206.268 315.278 214.163 314.581 222.169C314.357 224.75 314.302 227.887 314.413 231.581C314.44 232.461 314.423 233.333 314.364 234.197C314.34 234.577 314.238 234.599 314.058 234.262C311.551 229.568 309.084 224.725 306.658 219.733C305.402 217.146 304.36 214.565 303.555 211.849C303.335 211.116 303.287 210.43 303.41 209.793C303.767 207.942 304.127 206.156 304.488 204.435C306.879 193.046 305.99 182.02 301.819 171.355C300.002 166.702 298.068 162.525 296.016 158.822C294.71 156.466 293.315 153.901 291.831 151.125C291.272 150.079 289.813 147.25 288.159 148.142C288.066 148.191 287.995 148.274 287.959 148.373C287.632 149.247 287.411 150.099 287.294 150.932C287.016 152.912 286.761 154.977 286.528 157.126C285.849 163.407 285.879 169.594 286.617 175.687C287.042 179.194 288.005 183.421 289.504 188.368C290.553 191.831 291.649 195.164 292.791 198.366C292.803 198.401 292.802 198.44 292.787 198.474C292.771 198.508 292.744 198.535 292.709 198.55C292.65 198.576 292.596 198.563 292.548 198.511C287.538 193.255 282.203 187.982 276.544 182.692C274.059 180.369 272.026 178.599 270.446 177.383C265.401 173.493 260.8 170.437 256.645 168.215C251.472 165.45 245.704 163.315 239.339 161.811C238.87 161.702 238.367 161.63 237.83 161.596C237.499 161.576 237.156 161.512 236.801 161.403C236.475 161.304 236.118 161.241 235.733 161.213C235.654 161.206 235.592 161.171 235.549 161.107C235.511 161.055 235.461 161.03 235.397 161.033C234.635 161.065 233.941 160.878 233.191 160.791C228.988 160.3 224.666 160.255 220.225 160.656C219.568 160.714 218.975 160.919 218.447 161.271C217.415 161.956 218.417 163.037 218.989 163.555C222.97 167.175 226.925 170.104 231.636 173.19C235.417 175.665 238.259 177.434 240.161 178.496C242.326 179.706 244.778 180.965 247.515 182.274C247.651 182.34 247.844 182.363 248.094 182.341Z" stroke="#eee6d5" stroke-width="2"/>
</svg>
